<?xml version="1.0" encoding="utf-8"?>
<!-- Generator: Adobe Illustrator 19.1.0, SVG Export Plug-In . SVG Version: 6.00 Build 0)  -->
<svg version="1.1" id="Layer_1" xmlns="http://www.w3.org/2000/svg" xmlns:xlink="http://www.w3.org/1999/xlink" x="0px" y="0px"
	 width="130.2px" height="130.2px" viewBox="0 0 130.2 130.2" style="enable-background:new 0 0 130.2 130.2;" xml:space="preserve"
	>
<style type="text/css">
	.st0{fill:#1F2A66;}
</style>
<path class="st0" d="M80.1,26.9h4.8c0.5,0.2,1,0.4,1.6,0.5c3.3,1,5,3.3,5.6,6.6c0.7,3.9,0,7.3-4.3,9.6c2.6,0,4.6,0,6.6,0
	c5.1,0.1,8.2,2.5,9.5,7.5c0.1,0.2,0.2,0.4,0.3,0.6v7.1c-0.9,2.2-2.3,3.6-4.8,3.9v2c0,9.4,0,18.8,0,28.3c0,1.3-0.2,2.6-0.6,3.8
	c-1.1,3.7-3.9,5.7-7.5,6.5H40.7c-6.3-2.2-8.1-4.7-8.1-11.5c0-9.1,0-18.2,0-27.2v-1.9c-2.6-0.2-3.9-1.8-4.8-3.9v-7.1
	c0.1-0.2,0.3-0.5,0.3-0.7c1.2-4.6,4.4-7.2,9.2-7.3c1.5,0,2.9,0,4.4,0c0.7,0,1.4,0,2,0c-1.9-1.3-3.2-2.7-3.7-4.8
	c-1-4.5,0.3-10.8,6.8-11.8c0.1,0,0.2-0.1,0.2-0.2h4.8c4.5,1.1,8.2,3.6,11.5,7c0.5-1.9,0-4.5,2.6-4.5c2.6,0,2.1,2.6,2.6,4.5
	C71.9,30.5,75.6,28.1,80.1,26.9 M56.4,98.5V62.8h-19c0,0.3-0.1,0.6-0.1,0.8c0,9.5,0,19,0,28.5c0,1.2,0.4,2.6,0.9,3.7
	c0.7,1.5,1.8,2.7,3.6,2.8C46.6,98.6,51.4,98.5,56.4,98.5 M75.5,98.6c4.6,0,9-0.1,13.5,0c2.5,0.1,4-1.1,4.8-3.2
	c0.5-1.3,0.8-2.7,0.8-4.1c0.1-9,0-18,0-27c0-0.5-0.1-1-0.1-1.5h-19V98.6z M73.1,62.8H58.8v35.7h14.3V62.8z M54.1,48.3
	c-5.2,0-10.1,0-15,0c-5,0-6.6,1.7-6.6,6.6c0,1.9,0.9,3.1,2.8,3.1c5.9,0.1,11.9,0.1,17.8,0c0.3,0,0.9-0.6,0.9-1
	C54.2,54.2,54.1,51.4,54.1,48.3 M77.9,58c6.4,0,12.7,0.1,18.9-0.1c0.8,0,2-0.9,2.3-1.6c1.7-3.7-0.9-7.8-4.9-8c-1.9-0.1-3.8,0-5.8,0
	c-3.5,0-7,0-10.6,0V58z M56.4,57.9h19.1v-9.4H56.4V57.9z M61.1,43.7c0.8-6.4-4.9-12.3-11.3-12c-3.1,0.2-5.3,1.9-5.4,4.5
	c-0.2,2.9,2.7,7.3,5.1,7.4C53.4,43.8,57.2,43.7,61.1,43.7 M70.8,43.7H80c3.6,0,6.3-2,7.2-5.5c0.8-3-0.5-5.3-3.4-6.2
	C77.3,30,69.9,36.6,70.8,43.7"/>
</svg>
