<?xml version="1.0" encoding="utf-8"?>
<!-- Generator: Adobe Illustrator 19.1.0, SVG Export Plug-In . SVG Version: 6.00 Build 0)  -->
<svg version="1.1" id="Layer_1" xmlns="http://www.w3.org/2000/svg" xmlns:xlink="http://www.w3.org/1999/xlink" x="0px" y="0px"
	 width="130.2px" height="130.2px" viewBox="0 0 130.2 130.2" style="enable-background:new 0 0 130.2 130.2;" xml:space="preserve"
	>
<style type="text/css">
	.st0{fill:#1F2A66;}
	.st1{fill:#FFFFFF;}
</style>
<path class="st0" d="M61.3,112.9c0,0,2.3,0.1,2.3-2.8V86.9V74.3h5v36c0,0,0.2,2.3,2.9,2.6l7.2,0.7c0,0,3.7,0,4.1,2.5
	c0,0,0.9,2.2-2.7,2.2H52.4c0,0-2.7-0.3-2.7-2.3c0,0-0.1-2.4,3.9-2.6L61.3,112.9z"/>
<path class="st0" d="M58.8,10.7l-16.2,4.8L27.4,73.7c0,0-0.5,1.6,1.3,1.6h10c0,0,1.3,0.2,1.9-1.3l6.8-26.6L43.1,71
	c0,0-1,4.3,1.3,4.3h18.8l3.4-6.1l2.9,6.1H88c0,0,2.7,0.7,2.4-1.9l-5-26.6L92.1,73c0,0,0.2,2.3,1.8,2.3h10.3c0,0,1.7-0.3,1.2-2.4
	L90.7,16l-16.5-5.4L58.8,10.7z"/>
<path class="st0" d="M62.3,15.3l-2.9-4.7l1.5-3.6c0,0,0.5-1.5,2.6-0.8L67,9.7L62.3,15.3z"/>
<path class="st0" d="M71.2,15.3l2.9-4.7l-1.5-3.6c0,0-0.5-1.5-2.6-0.8l-3.6,3.5L71.2,15.3z"/>
<path class="st1" d="M66.5,40.4c0,0-3.7-1.3-6.4-3.1c0,0-3-2-3.5-5.6l-4.3-19.1l6.5-1.9l2.9,4.7L66.5,40.4z"/>
<path class="st1" d="M67,40.4c0,0,3.7-1.3,6.4-3.1c0,0,3-2,3.5-5.6l4.3-19.1l-6.5-1.9l-2.9,4.7L67,40.4z"/>
<path class="st1" d="M61.3,55.4c0,1.3-1,2.3-2.3,2.3c-1.3,0-2.3-1-2.3-2.3c0-1.3,1-2.3,2.3-2.3C60.3,53.1,61.3,54.1,61.3,55.4"/>
<path class="st1" d="M61.3,65.5c0,1.3-1,2.3-2.3,2.3c-1.3,0-2.3-1-2.3-2.3c0-1.3,1-2.3,2.3-2.3C60.3,63.3,61.3,64.3,61.3,65.5"/>
<path class="st1" d="M76.4,55.4c0,1.3-1,2.3-2.3,2.3c-1.3,0-2.3-1-2.3-2.3c0-1.3,1-2.3,2.3-2.3C75.4,53.1,76.4,54.1,76.4,55.4"/>
<path class="st1" d="M76.4,65.5c0,1.3-1,2.3-2.3,2.3c-1.3,0-2.3-1-2.3-2.3c0-1.3,1-2.3,2.3-2.3C75.4,63.3,76.4,64.3,76.4,65.5"/>
</svg>
