<?xml version="1.0" encoding="utf-8"?>
<!-- Generator: Adobe Illustrator 19.1.0, SVG Export Plug-In . SVG Version: 6.00 Build 0)  -->
<svg version="1.1" id="Layer_1" xmlns="http://www.w3.org/2000/svg" xmlns:xlink="http://www.w3.org/1999/xlink" x="0px" y="0px"
	 width="130.2px" height="130.2px" viewBox="0 0 130.2 130.2" style="enable-background:new 0 0 130.2 130.2;" xml:space="preserve"
	>
<style type="text/css">
	.st0{fill:#1F2A66;}
</style>
<path class="st0" d="M104.5,69.5c-1.7-1.1-3.2-2-4.7-2.9c-1.1-0.6-2.2-1.1-3.3-1.6C95.8,43.2,78.1,31,61.8,32.1
	C44.2,33.2,31,47.6,31.1,64.9c0.2,19.3,17.5,35.3,37.9,32c0.8,2.6,1.7,5.3,2.5,7.9c-9.1,3.2-27.4,0.3-39.3-13.3
	c-12-13.9-13.2-35.5-2.4-50.5c11.5-16.1,31.9-22,49.9-14.4C97.8,34.2,106.9,52.9,104.5,69.5"/>
<path class="st0" d="M59.3,61.9c0-5.1,0-9.9,0-14.8c0-1.1-0.1-2.2,0-3.3c0.2-2.8,1.9-4.5,4.4-4.5c2.5,0,4.3,1.8,4.3,4.6
	c0.1,4,0,8,0,12c0,3.1,0,6.3,0,9.4c0,3.6-1.6,5.2-5.1,5.2c-4.8,0-9.6,0-14.3,0c-3.2,0-5-1.5-5.1-4.3c0-2.8,1.8-4.4,5.2-4.4
	C52.2,61.9,55.6,61.9,59.3,61.9"/>
<path class="st0" d="M100.3,74.6v-3.1c3.9-0.4,7.2,2.1,7.3,5.9c0.2,7.1,0.1,14.3,0,21.4c-0.1,3.3-2.7,6-6,6.1
	c-7.8,0.1-15.5,0.1-23.3,0c-3.4-0.1-6-2.9-6-6.4c-0.1-6.9-0.1-13.8,0-20.7c0.1-3.9,2.9-6.4,7.2-6.4v3.5c-3.6,0.1-3.5,2.7-3.5,5.5
	c0.1,5.7,0,11.4,0,17.2c0,2.7,1,3.7,3.7,3.7c6.8,0,13.6,0,20.5,0c2.7,0,3.6-1,3.6-3.8c0-5.9,0-11.8,0-17.6
	C103.9,76.1,103.8,75.9,100.3,74.6"/>
<path class="st0" d="M81.3,76.6c0.2-2.8,0.1-4.8,0.5-6.7c0.1-0.7,1.2-1.7,1.8-1.6c0.7,0.1,1.7,1,1.8,1.7c0.4,1.9,0.7,3.9,0.5,5.7
	c-0.1,0.8-1.5,2-2.4,2.1C82.6,78,81.7,76.8,81.3,76.6"/>
<path class="st0" d="M87.8,76.5c0.2-2.8,0.2-4.6,0.5-6.4c0.1-0.7,1.1-1.3,1.7-1.9c0.6,0.7,1.7,1.2,1.9,2c0.4,1.7,0.6,3.5,0.7,5.3
	c0,1.5-0.8,2.8-2.3,2.5C89.1,77.8,88.2,76.8,87.8,76.5"/>
<path class="st0" d="M99.3,76.2c-1,0.6-1.9,1.6-2.9,1.7c-1.6,0.2-2.4-1.1-2.3-2.6c0.1-1.7,0.2-3.4,0.7-5c0.2-0.8,1.3-1.4,1.9-2.2
	c0.6,0.7,1.5,1.4,1.6,2.2c0.3,1.7,0.3,3.5,0.4,5.3C98.9,75.9,99.1,76.1,99.3,76.2"/>
<path class="st0" d="M98.9,80c0.7,1,1.9,1.9,1.9,2.9c0,0.8-1.5,2.2-2.3,2.2c-0.8,0-2.3-1.3-2.4-2.1c-0.1-0.9,1.1-2,1.8-3
	C98.2,80,98.5,80,98.9,80"/>
<path class="st0" d="M92.9,90C91.9,90.7,91,92,90,92c-0.8,0-2.2-1.4-2.3-2.2c0-0.8,1.3-2.3,2.1-2.4c1-0.1,2,1.1,3,1.7
	C92.9,89.4,92.9,89.7,92.9,90"/>
<path class="st0" d="M102,89.6c-1.7,1.1-2.7,2.4-3.6,2.3c-0.8,0-2.2-1.4-2.3-2.3c-0.3-1.4,1-2.6,2.5-2.4
	C99.5,87.4,100.3,88.5,102,89.6"/>
<path class="st0" d="M84.4,97c-1,0.6-2,1.7-3,1.7c-0.8-0.1-2-1.4-2.2-2.3c-0.2-1.5,0.9-2.6,2.5-2.3c1,0.2,1.8,1.2,2.7,1.9
	C84.5,96.3,84.4,96.6,84.4,97"/>
<path class="st0" d="M84.5,90.1c-1,0.7-2,1.9-2.9,1.8c-0.8,0-2.2-1.5-2.2-2.3c0-0.8,1.3-2.3,2.1-2.3c0.9-0.1,2,1.1,3,1.7
	C84.4,89.4,84.5,89.8,84.5,90.1"/>
<path class="st0" d="M92.9,97c-1,0.6-2.1,1.7-3,1.7c-0.8-0.1-2.1-1.4-2.2-2.3c-0.2-1.4,1-2.6,2.5-2.3c1,0.2,1.8,1.3,2.7,1.9
	C92.9,96.3,92.9,96.6,92.9,97"/>
<path class="st0" d="M101.3,97c-1,0.6-2.1,1.7-3,1.6c-0.8-0.1-1.6-1.5-2.3-2.3c0.9-0.8,1.8-2.1,2.7-2.2c0.8-0.1,1.8,1.2,2.7,1.9
	C101.3,96.3,101.3,96.7,101.3,97"/>
</svg>
