<?xml version="1.0" encoding="utf-8"?>
<!-- Generator: Adobe Illustrator 20.1.0, SVG Export Plug-In . SVG Version: 6.00 Build 0)  -->
<svg version="1.1" id="Layer_1" xmlns="http://www.w3.org/2000/svg" xmlns:xlink="http://www.w3.org/1999/xlink" x="0px" y="0px"
	 viewBox="0 0 15.3 17.6" style="enable-background:new 0 0 15.3 17.6;" xml:space="preserve">
<style type="text/css">
	.st0{fill:#4E4D4D;}
</style>
<g>
	<path class="st0" d="M0.8,6.2C0.5,6.1,0.3,6.1,0,6.1c0-1,0-1.9,0-2.9c0-0.6,0.5-0.9,1.2-0.9c1.1,0,2.1,0,3.2,0
		c0-0.1,0.1-0.2,0.1-0.3c0.1-1.6,0.5-2,2.2-2c0.7,0,1.4,0,2.1,0c1.3,0,1.8,0.5,1.9,1.8c0,0.1,0,0.3,0,0.5c1,0,1.9,0,2.9,0
		c1.3,0,1.6,0.3,1.6,1.6c0,0.7,0,1.3,0,2c0,0,0,0.1-0.1,0.2c-0.2,0-0.4,0-0.7,0.1c0,0.2,0,0.5,0,0.7c0,2.5,0,5,0,7.4
		c0,2.1-1.2,3.3-3.3,3.3c-2.4,0-4.8,0-7.2,0c-2,0-3.3-1.3-3.3-3.3c0-2.5,0-5,0-7.4C0.8,6.7,0.8,6.5,0.8,6.2z M2.3,6.2
		c0,0.2,0,0.4,0,0.6c0,2.5,0,5,0,7.6c0,1.2,0.6,1.8,1.8,1.8c2.4,0,4.7,0,7.1,0c1.3,0,1.8-0.5,1.8-1.8c0-2.4,0-4.8,0-7.2
		c0-0.3,0-0.6,0-0.9C9.4,6.2,5.9,6.2,2.3,6.2z M13.7,3.9c-4.1,0-8.1,0-12.2,0c0,0.2,0,0.4,0,0.7c4.1,0,8.1,0,12.2,0
		C13.7,4.3,13.7,4.1,13.7,3.9z M9.2,1.6c-1,0-2,0-3.1,0c0,0.3,0,0.5,0.1,0.7c1,0,2,0,3,0C9.2,2,9.2,1.8,9.2,1.6z"/>
	<path class="st0" d="M8.4,11.1c0,1.1,0,2.2,0,3.2c0,0.5-0.2,0.9-0.7,0.9c-0.5,0-0.8-0.3-0.8-0.9c0-2.2,0-4.3,0-6.5
		c0-0.6,0.3-1,0.8-0.9c0.6,0.1,0.7,0.4,0.7,1C8.4,8.9,8.4,10,8.4,11.1z"/>
	<path class="st0" d="M5.3,11.1c0,1.1,0,2.2,0,3.3c0,0.6-0.3,1-0.8,0.9c-0.6,0-0.7-0.4-0.7-0.9c0-2.2,0-4.4,0-6.6
		c0-0.6,0.3-0.9,0.8-0.9C5.1,7,5.3,7.3,5.3,7.8C5.3,8.9,5.3,10,5.3,11.1L5.3,11.1z"/>
	<path class="st0" d="M11.5,11.1c0,1.1,0,2.1,0,3.2c0,0.7-0.3,1-0.8,1c-0.6,0-0.7-0.5-0.7-1c0-2.1,0-4.3,0-6.4c0-0.5,0.1-1,0.7-1
		c0.5-0.1,0.8,0.4,0.8,1C11.5,9,11.5,10.1,11.5,11.1z"/>
</g>
</svg>
