<?xml version="1.0" encoding="utf-8"?>
<!-- Generator: Adobe Illustrator 20.1.0, SVG Export Plug-In . SVG Version: 6.00 Build 0)  -->
<svg version="1.1" id="Layer_1" xmlns="http://www.w3.org/2000/svg" xmlns:xlink="http://www.w3.org/1999/xlink" x="0px" y="0px"
	 viewBox="0 0 17.5 18.9" style="enable-background:new 0 0 17.5 18.9;" xml:space="preserve">
<style type="text/css">
	.st0{fill:#4E4D4D;}
</style>
<g>
	<path class="st0" d="M2.7,8.1c0-2.2,0-4.3,0-6.5C2.7,0.5,3.2,0,4.3,0c2.9,0,5.8,0,8.7,0c0.3,0,0.7,0.2,0.9,0.4
		c1.1,1.1,2.2,2.1,3.3,3.3c0.2,0.2,0.4,0.6,0.4,0.9c0,3.4,0,6.8,0,10.1c0,0.9-0.5,1.5-1.5,1.5c-4,0-7.9,0-11.9,0
		c-1,0-1.5-0.5-1.5-1.5C2.7,12.4,2.7,10.3,2.7,8.1L2.7,8.1z M12.2,1.4c-0.3,0-0.4,0-0.6,0c-2.3,0-4.5,0-6.8,0C4.2,1.3,4,1.5,4,2
		c0,4.1,0,8.1,0,12.2c0,0.6,0.2,0.7,0.7,0.7c3.6,0,7.2,0,10.8,0c0.5,0,0.7-0.1,0.7-0.7c0-2.7,0-5.4,0-8.1c0-0.2,0-0.4,0-0.7
		c-0.9,0-1.7,0-2.5,0c-1,0-1.5-0.5-1.5-1.5C12.2,3,12.2,2.2,12.2,1.4z M16,4.1c-0.8-0.8-1.6-1.7-2.5-2.5c0,0.6,0,1.3,0,2
		c0,0.1,0.2,0.4,0.4,0.4C14.6,4.1,15.3,4.1,16,4.1z"/>
	<path class="st0" d="M0,10.1c0-2.3,0-4.7,0-7C0,3,0,2.8,0,2.7C0,2.3,0.3,2.1,0.6,2c0.4,0,0.7,0.2,0.7,0.7c0,0.5,0,1,0,1.6
		c0,4.2,0,8.4,0,12.5c0,0.7,0,0.7,0.8,0.7c4.1,0,8.3,0,12.4,0c0.2,0,0.4-0.1,0.5,0c0.2,0.2,0.5,0.4,0.5,0.7c0,0.2-0.3,0.4-0.5,0.6
		c-0.1,0.1-0.3,0-0.4,0c-4.3,0-8.6,0-12.9,0c-1.1,0-1.6-0.5-1.7-1.6C0,14.9,0,12.5,0,10.1z"/>
	<path class="st0" d="M10.8,8.1c0.9,0,1.7,0,2.5,0c0.5,0,0.8,0.1,0.9,0.6c0,0.4-0.3,0.7-0.9,0.7c-0.8,0-1.5,0-2.3,0
		c0,0-0.1,0-0.2,0.1c0,0.8,0,1.6,0,2.4c0,0.6-0.2,0.9-0.7,0.9c-0.4,0-0.7-0.3-0.7-0.9c0-0.8,0-1.6,0-2.5c-0.7,0-1.4,0-2.1,0
		c-0.2,0-0.4,0-0.6,0c-0.4,0-0.7-0.2-0.7-0.7c0-0.4,0.3-0.6,0.7-0.7c0.9,0,1.7,0,2.7,0c0-0.7,0-1.4,0-2.1c0-0.2,0-0.4,0-0.6
		c0-0.4,0.2-0.7,0.7-0.7c0.4,0,0.6,0.3,0.6,0.7c0,0.7,0,1.3,0,2C10.8,7.6,10.8,7.8,10.8,8.1z"/>
</g>
</svg>
