<?xml version="1.0" encoding="utf-8"?>
<!-- Generator: Adobe Illustrator 20.1.0, SVG Export Plug-In . SVG Version: 6.00 Build 0)  -->
<svg version="1.1" id="Layer_1" xmlns="http://www.w3.org/2000/svg" xmlns:xlink="http://www.w3.org/1999/xlink" x="0px" y="0px"
	 width="600px" height="600px" viewBox="0 0 600 600" style="enable-background:new 0 0 600 600;" xml:space="preserve">
<style type="text/css">
	.st0{clip-path:url(#SVGID_2_);fill:none;stroke:#7F8080;stroke-width:3;stroke-miterlimit:10;}
	.st1{clip-path:url(#SVGID_2_);fill:none;stroke:#7F8080;stroke-width:3;stroke-linejoin:round;stroke-miterlimit:10;}
	
		.st2{clip-path:url(#SVGID_2_);fill:none;stroke:#7F8080;stroke-width:3;stroke-linecap:round;stroke-linejoin:round;stroke-miterlimit:10;}
	.st3{clip-path:url(#SVGID_4_);fill:none;stroke:#7F8080;stroke-width:3;stroke-miterlimit:10;}
	.st4{clip-path:url(#SVGID_4_);fill:none;stroke:#7F8080;stroke-width:3;stroke-linejoin:round;stroke-miterlimit:10;}
	.st5{clip-path:url(#SVGID_4_);fill:none;stroke:#7F8080;stroke-miterlimit:10;}
	.st6{fill:#FFFFFF;}
	.st7{clip-path:url(#SVGID_6_);fill:none;stroke:#7F8080;stroke-width:3;stroke-miterlimit:10;}
	.st8{clip-path:url(#SVGID_6_);fill:none;stroke:#7F8080;stroke-width:3;stroke-linejoin:round;stroke-miterlimit:10;}
	.st9{clip-path:url(#SVGID_6_);fill:none;stroke:#7F8080;stroke-miterlimit:10;}
	.st10{clip-path:url(#SVGID_8_);fill:none;stroke:#7F8080;stroke-width:3;stroke-miterlimit:10;}
	.st11{clip-path:url(#SVGID_8_);fill:none;stroke:#7F8080;stroke-width:3;stroke-linejoin:round;stroke-miterlimit:10;}
	.st12{clip-path:url(#SVGID_10_);fill:none;stroke:#7F8080;stroke-width:3;stroke-miterlimit:10;}
	.st13{clip-path:url(#SVGID_10_);fill:none;stroke:#7F8080;stroke-width:3;stroke-linejoin:round;stroke-miterlimit:10;}
	.st14{clip-path:url(#SVGID_12_);fill:none;stroke:#7F8080;stroke-width:3;stroke-miterlimit:10;}
	.st15{clip-path:url(#SVGID_12_);fill:none;stroke:#7F8080;stroke-width:3;stroke-linejoin:round;stroke-miterlimit:10;}
	.st16{clip-path:url(#SVGID_14_);fill:none;stroke:#7F8080;stroke-width:3;stroke-miterlimit:10;}
	.st17{clip-path:url(#SVGID_14_);fill:none;stroke:#7F8080;stroke-width:3;stroke-linejoin:round;stroke-miterlimit:10;}
	
		.st18{clip-path:url(#SVGID_14_);fill:none;stroke:#7F8080;stroke-width:3;stroke-linecap:round;stroke-linejoin:round;stroke-miterlimit:10;}
	.st19{clip-path:url(#SVGID_16_);fill:none;stroke:#7F8080;stroke-width:3;stroke-miterlimit:10;}
	.st20{clip-path:url(#SVGID_16_);fill:none;stroke:#7F8080;stroke-miterlimit:10;}
	.st21{clip-path:url(#SVGID_18_);fill:none;stroke:#7F8080;stroke-width:3;stroke-miterlimit:10;}
	.st22{clip-path:url(#SVGID_18_);fill:none;stroke:#7F8080;stroke-miterlimit:10;}
	.st23{fill:none;stroke:#7F8080;stroke-width:3;stroke-miterlimit:10;}
	.st24{clip-path:url(#SVGID_20_);fill:none;stroke:#7F8080;stroke-width:3;stroke-miterlimit:10;}
	.st25{clip-path:url(#SVGID_20_);fill:none;stroke:#7F8080;stroke-miterlimit:10;}
	.st26{clip-path:url(#SVGID_22_);fill:none;stroke:#7F8080;stroke-width:3;stroke-miterlimit:10;}
	.st27{clip-path:url(#SVGID_22_);fill:none;stroke:#7F8080;stroke-width:3;stroke-linejoin:round;stroke-miterlimit:10;}
	.st28{clip-path:url(#SVGID_22_);fill:none;stroke:#7F8080;stroke-miterlimit:10;}
	.st29{clip-path:url(#SVGID_24_);fill:none;stroke:#7F8080;stroke-width:3;stroke-miterlimit:10;}
	.st30{clip-path:url(#SVGID_24_);fill:none;stroke:#7F8080;stroke-width:3;stroke-linejoin:round;stroke-miterlimit:10;}
	.st31{clip-path:url(#SVGID_24_);fill:none;stroke:#7F8080;stroke-miterlimit:10;}
	.st32{clip-path:url(#SVGID_26_);fill:none;stroke:#7F8080;stroke-width:3;stroke-miterlimit:10;}
	.st33{clip-path:url(#SVGID_26_);fill:none;stroke:#7F8080;stroke-width:3;stroke-linejoin:round;stroke-miterlimit:10;}
	.st34{clip-path:url(#SVGID_26_);fill:none;stroke:#7F8080;stroke-miterlimit:10;}
	.st35{clip-path:url(#SVGID_28_);fill:none;stroke:#7F8080;stroke-width:3;stroke-linejoin:round;stroke-miterlimit:10;}
	.st36{clip-path:url(#SVGID_28_);fill:#FFFFFF;}
	.st37{clip-path:url(#SVGID_28_);fill:none;stroke:#7F8080;stroke-miterlimit:10;}
	.st38{clip-path:url(#SVGID_28_);fill:none;stroke:#7F8080;stroke-width:3;stroke-miterlimit:10;}
	.st39{clip-path:url(#SVGID_30_);fill:none;stroke:#7F8080;stroke-width:3;stroke-linejoin:round;stroke-miterlimit:10;}
	.st40{clip-path:url(#SVGID_30_);fill:#FFFFFF;}
	.st41{clip-path:url(#SVGID_30_);fill:none;stroke:#7F8080;stroke-miterlimit:10;}
	.st42{clip-path:url(#SVGID_30_);fill:none;stroke:#7F8080;stroke-width:3;stroke-miterlimit:10;}
	.st43{clip-path:url(#SVGID_32_);fill:none;stroke:#7F8080;stroke-width:3;stroke-linejoin:round;stroke-miterlimit:10;}
	.st44{clip-path:url(#SVGID_32_);fill:#FFFFFF;}
	.st45{clip-path:url(#SVGID_32_);fill:none;stroke:#7F8080;stroke-width:3;stroke-miterlimit:10;}
	.st46{fill:none;stroke:#7F8080;stroke-width:3;stroke-linejoin:round;stroke-miterlimit:10;}
	.st47{clip-path:url(#SVGID_34_);fill:none;stroke:#7F8080;stroke-width:3;stroke-linejoin:round;stroke-miterlimit:10;}
	.st48{clip-path:url(#SVGID_34_);fill:#FFFFFF;}
	.st49{clip-path:url(#SVGID_34_);fill:none;stroke:#7F8080;stroke-width:3;stroke-miterlimit:10;}
	.st50{clip-path:url(#SVGID_34_);fill:none;stroke:#7F8080;stroke-miterlimit:10;}
	.st51{clip-path:url(#SVGID_36_);fill:none;stroke:#7F8080;stroke-width:3;stroke-linejoin:round;stroke-miterlimit:10;}
	.st52{clip-path:url(#SVGID_36_);fill:#FFFFFF;}
	.st53{clip-path:url(#SVGID_36_);fill:none;stroke:#7F8080;stroke-miterlimit:10;}
	.st54{clip-path:url(#SVGID_36_);fill:none;stroke:#7F8080;stroke-width:3;stroke-miterlimit:10;}
	.st55{clip-path:url(#SVGID_38_);fill:none;stroke:#7F8080;stroke-width:3;stroke-linejoin:round;stroke-miterlimit:10;}
	.st56{clip-path:url(#SVGID_38_);fill:#FFFFFF;}
	.st57{clip-path:url(#SVGID_38_);fill:none;stroke:#7F8080;stroke-width:3;stroke-miterlimit:10;}
	.st58{clip-path:url(#SVGID_40_);}
	.st59{fill:none;stroke:#7F8080;stroke-width:3;stroke-miterlimit:10;stroke-dasharray:2.9925,2.9925;}
	.st60{fill:none;stroke:#7F8080;stroke-width:3;stroke-miterlimit:10;stroke-dasharray:3,3;}
	.st61{fill:none;stroke:#7F8080;stroke-width:3;stroke-miterlimit:10;stroke-dasharray:3.0177,3.0177;}
	.st62{clip-path:url(#SVGID_42_);}
</style>
<g>
	<rect x="0.2" y="0.2" class="st6" width="600" height="600"/>
	<g>
		<defs>
			<rect id="SVGID_27_" x="0.2" y="0.2" width="600" height="600"/>
		</defs>
		<use xlink:href="#SVGID_27_"  style="overflow:visible;fill:#FFFFFF;"/>
		<clipPath id="SVGID_2_">
			<use xlink:href="#SVGID_27_"  style="overflow:visible;"/>
		</clipPath>
		<path class="st1" d="M326.3,148.2l-69.2,9.1c-1.7,0-3.2-1.4-3.2-3.2v-23.9c0-1.7,1.4-3.2,3.2-3.2l69.2-9.1c1.7,0,3.2,1.4,3.2,3.2
			V145C329.5,146.8,328.1,148.2,326.3,148.2z"/>
		<polygon style="clip-path:url(#SVGID_2_);fill:#FFFFFF;" points="288.1,98.3 234,202.2 234,108.4 		"/>
		<path style="clip-path:url(#SVGID_2_);fill:none;stroke:#7F8080;stroke-miterlimit:10;" d="M-95.4-3.7l11.9,31.1
			c25.2,59,60.4,194.4,60.4,194.4C-39,244.1-39,610.4-39,610.4h-96.5c-4.2-197,31.7-596.7,31.7-596.7C-103.8-4.3-95.4-3.7-95.4-3.7
			L38.2-53.8"/>
		<path class="st0" d="M422.2-3.6l-12.7,31c-17.5,41.5-47.7,150.7-47.7,150.7c-10.6,27.5-5.3,66.1-5.3,66.1
			c9.5,33,14.8,366.2,14.8,366.2h90.1c14.8-92-27.6-591.3-27.6-591.3C433.8-2.3,422.2-3.5,422.2-3.6l-140.8-54"/>
		<circle class="st0" cx="170.4" cy="396.1" r="13.3"/>
		<line class="st0" x1="180" y1="397.4" x2="189" y2="397.4"/>
		<circle class="st0" cx="170.4" cy="488.3" r="13.3"/>
		<line class="st0" x1="180" y1="489.4" x2="189" y2="489.4"/>
		<path class="st0" d="M356.5,244.1l-12.7,86.8c0,0-3.7,16.1,0,33.5L371.3,610L136,607.4H-38.6L-16,352.3
			C-15,329-27.2,241.1-27.2,241.1"/>
		<path class="st1" d="M150,607.7c0,0-7.9-182.7-6.4-217.8c1-22.9,35.4-79.1,35.4-79.1S323.7,45.4,341.2-20L277.6-9.4l26.7-7.7
			c0,0-32.3-72.9-74.4-85.6c0,0-64.3-22.3-142.8,5.3c0,0-39.9,20.1-72.5,79.5L44.8-4.1l-65.7-17.5c0,0,59.4,139.8,94.3,209.8
			c0,0,80.3,140.2,83.8,130.3"/>
		<path class="st0" d="M150,366.9c0,0,7.2-66.7,25.2-122.8c0,0,55.4-193.9,58.6-272.3c0,0,5.7-70.6-3.8-74.5"/>
		<path class="st0" d="M87.2-97.3c0,0-8.5,44.5,11.7,141c0,0,49.9,200.6,66.9,234.3"/>
		<path class="st0" d="M284.4,14c0,0,10.6-4.2,21.2-5.3"/>
		<path class="st1" d="M-33,540.4h88.2c15.1,0,15.9-14.1,15.9-14.1l1.6-96.9H-30"/>
		<path class="st1" d="M361,540.4h-83.2c-15.1,0-15.9-14.1-15.9-14.1l-1.6-96.9H348"/>
	</g>
</g>
<g>
	<g>
		<defs>
			<rect id="SVGID_29_" x="700.4" y="0.2" width="600" height="600"/>
		</defs>
		<clipPath id="SVGID_4_">
			<use xlink:href="#SVGID_29_"  style="overflow:visible;"/>
		</clipPath>
		<path class="st5" d="M604.8-3.7l11.9,31.1c25.2,59,60.4,194.4,60.4,194.4c-15.9,22.3-15.9,388.6-15.9,388.6h-96.5
			c-4.2-197,31.7-596.7,31.7-596.7C596.4-4.3,604.8-3.7,604.8-3.7l133.6-50.1"/>
	</g>
</g>
</svg>
