<?xml version="1.0" encoding="utf-8"?>
<!-- Generator: Adobe Illustrator 20.1.0, SVG Export Plug-In . SVG Version: 6.00 Build 0)  -->
<svg version="1.1" id="Layer_1" xmlns="http://www.w3.org/2000/svg" xmlns:xlink="http://www.w3.org/1999/xlink" x="0px" y="0px"
	 width="600px" height="600px" viewBox="0 0 600 600" style="enable-background:new 0 0 600 600;" xml:space="preserve">
<style type="text/css">
	.st0{clip-path:url(#SVGID_2_);fill:none;stroke:#7F8080;stroke-width:3;stroke-miterlimit:10;}
	.st1{clip-path:url(#SVGID_2_);fill:none;stroke:#7F8080;stroke-width:3;stroke-linejoin:round;stroke-miterlimit:10;}
	
		.st2{clip-path:url(#SVGID_2_);fill:none;stroke:#7F8080;stroke-width:3;stroke-linecap:round;stroke-linejoin:round;stroke-miterlimit:10;}
	.st3{clip-path:url(#SVGID_4_);fill:none;stroke:#7F8080;stroke-width:3;stroke-miterlimit:10;}
	.st4{clip-path:url(#SVGID_4_);fill:none;stroke:#7F8080;stroke-width:3;stroke-linejoin:round;stroke-miterlimit:10;}
	.st5{clip-path:url(#SVGID_4_);fill:none;stroke:#7F8080;stroke-miterlimit:10;}
	.st6{fill:#FFFFFF;}
	.st7{clip-path:url(#SVGID_6_);fill:none;stroke:#7F8080;stroke-width:3;stroke-miterlimit:10;}
	.st8{clip-path:url(#SVGID_6_);fill:none;stroke:#7F8080;stroke-width:3;stroke-linejoin:round;stroke-miterlimit:10;}
	.st9{clip-path:url(#SVGID_6_);fill:none;stroke:#7F8080;stroke-miterlimit:10;}
	.st10{clip-path:url(#SVGID_8_);fill:none;stroke:#7F8080;stroke-width:3;stroke-miterlimit:10;}
	.st11{clip-path:url(#SVGID_8_);fill:none;stroke:#7F8080;stroke-width:3;stroke-linejoin:round;stroke-miterlimit:10;}
	.st12{clip-path:url(#SVGID_10_);fill:none;stroke:#7F8080;stroke-width:3;stroke-miterlimit:10;}
	.st13{clip-path:url(#SVGID_10_);fill:none;stroke:#7F8080;stroke-width:3;stroke-linejoin:round;stroke-miterlimit:10;}
	.st14{clip-path:url(#SVGID_12_);fill:none;stroke:#7F8080;stroke-width:3;stroke-miterlimit:10;}
	.st15{clip-path:url(#SVGID_12_);fill:none;stroke:#7F8080;stroke-width:3;stroke-linejoin:round;stroke-miterlimit:10;}
	.st16{clip-path:url(#SVGID_14_);fill:none;stroke:#7F8080;stroke-width:3;stroke-miterlimit:10;}
	.st17{clip-path:url(#SVGID_14_);fill:none;stroke:#7F8080;stroke-width:3;stroke-linejoin:round;stroke-miterlimit:10;}
	
		.st18{clip-path:url(#SVGID_14_);fill:none;stroke:#7F8080;stroke-width:3;stroke-linecap:round;stroke-linejoin:round;stroke-miterlimit:10;}
	.st19{clip-path:url(#SVGID_16_);fill:none;stroke:#7F8080;stroke-width:3;stroke-miterlimit:10;}
	.st20{clip-path:url(#SVGID_16_);fill:none;stroke:#7F8080;stroke-miterlimit:10;}
	.st21{clip-path:url(#SVGID_18_);fill:none;stroke:#7F8080;stroke-width:3;stroke-miterlimit:10;}
	.st22{clip-path:url(#SVGID_18_);fill:none;stroke:#7F8080;stroke-miterlimit:10;}
	.st23{fill:none;stroke:#7F8080;stroke-width:3;stroke-miterlimit:10;}
	.st24{clip-path:url(#SVGID_20_);fill:none;stroke:#7F8080;stroke-width:3;stroke-miterlimit:10;}
	.st25{clip-path:url(#SVGID_20_);fill:none;stroke:#7F8080;stroke-miterlimit:10;}
	.st26{clip-path:url(#SVGID_22_);fill:none;stroke:#7F8080;stroke-width:3;stroke-miterlimit:10;}
	.st27{clip-path:url(#SVGID_22_);fill:none;stroke:#7F8080;stroke-width:3;stroke-linejoin:round;stroke-miterlimit:10;}
	.st28{clip-path:url(#SVGID_22_);fill:none;stroke:#7F8080;stroke-miterlimit:10;}
	.st29{clip-path:url(#SVGID_24_);fill:none;stroke:#7F8080;stroke-width:3;stroke-miterlimit:10;}
	.st30{clip-path:url(#SVGID_24_);fill:none;stroke:#7F8080;stroke-width:3;stroke-linejoin:round;stroke-miterlimit:10;}
	.st31{clip-path:url(#SVGID_24_);fill:none;stroke:#7F8080;stroke-miterlimit:10;}
	.st32{clip-path:url(#SVGID_26_);fill:none;stroke:#7F8080;stroke-width:3;stroke-miterlimit:10;}
	.st33{clip-path:url(#SVGID_26_);fill:none;stroke:#7F8080;stroke-width:3;stroke-linejoin:round;stroke-miterlimit:10;}
	.st34{clip-path:url(#SVGID_26_);fill:none;stroke:#7F8080;stroke-miterlimit:10;}
	.st35{clip-path:url(#SVGID_28_);fill:none;stroke:#7F8080;stroke-width:3;stroke-linejoin:round;stroke-miterlimit:10;}
	.st36{clip-path:url(#SVGID_28_);fill:#FFFFFF;}
	.st37{clip-path:url(#SVGID_28_);fill:none;stroke:#7F8080;stroke-miterlimit:10;}
	.st38{clip-path:url(#SVGID_28_);fill:none;stroke:#7F8080;stroke-width:3;stroke-miterlimit:10;}
	.st39{clip-path:url(#SVGID_30_);fill:none;stroke:#7F8080;stroke-width:3;stroke-linejoin:round;stroke-miterlimit:10;}
	.st40{clip-path:url(#SVGID_30_);fill:#FFFFFF;}
	.st41{clip-path:url(#SVGID_30_);fill:none;stroke:#7F8080;stroke-miterlimit:10;}
	.st42{clip-path:url(#SVGID_30_);fill:none;stroke:#7F8080;stroke-width:3;stroke-miterlimit:10;}
	.st43{clip-path:url(#SVGID_32_);fill:none;stroke:#7F8080;stroke-width:3;stroke-linejoin:round;stroke-miterlimit:10;}
	.st44{clip-path:url(#SVGID_32_);fill:#FFFFFF;}
	.st45{clip-path:url(#SVGID_32_);fill:none;stroke:#7F8080;stroke-width:3;stroke-miterlimit:10;}
	.st46{fill:none;stroke:#7F8080;stroke-width:3;stroke-linejoin:round;stroke-miterlimit:10;}
	.st47{clip-path:url(#SVGID_34_);fill:none;stroke:#7F8080;stroke-width:3;stroke-linejoin:round;stroke-miterlimit:10;}
	.st48{clip-path:url(#SVGID_34_);fill:#FFFFFF;}
	.st49{clip-path:url(#SVGID_34_);fill:none;stroke:#7F8080;stroke-width:3;stroke-miterlimit:10;}
	.st50{clip-path:url(#SVGID_34_);fill:none;stroke:#7F8080;stroke-miterlimit:10;}
	.st51{clip-path:url(#SVGID_36_);fill:none;stroke:#7F8080;stroke-width:3;stroke-linejoin:round;stroke-miterlimit:10;}
	.st52{clip-path:url(#SVGID_36_);fill:#FFFFFF;}
	.st53{clip-path:url(#SVGID_36_);fill:none;stroke:#7F8080;stroke-miterlimit:10;}
	.st54{clip-path:url(#SVGID_36_);fill:none;stroke:#7F8080;stroke-width:3;stroke-miterlimit:10;}
	.st55{clip-path:url(#SVGID_38_);fill:none;stroke:#7F8080;stroke-width:3;stroke-linejoin:round;stroke-miterlimit:10;}
	.st56{clip-path:url(#SVGID_38_);fill:#FFFFFF;}
	.st57{clip-path:url(#SVGID_38_);fill:none;stroke:#7F8080;stroke-width:3;stroke-miterlimit:10;}
	.st58{clip-path:url(#SVGID_40_);}
	.st59{fill:none;stroke:#7F8080;stroke-width:3;stroke-miterlimit:10;stroke-dasharray:2.9925,2.9925;}
	.st60{fill:none;stroke:#7F8080;stroke-width:3;stroke-miterlimit:10;stroke-dasharray:3,3;}
	.st61{fill:none;stroke:#7F8080;stroke-width:3;stroke-miterlimit:10;stroke-dasharray:3.0177,3.0177;}
	.st62{clip-path:url(#SVGID_42_);}
</style>
<g>
	<rect x="0.1" y="0" class="st6" width="600" height="600"/>
	<g>
		<defs>
			<rect id="SVGID_11_" x="0.1" y="0" width="600" height="600"/>
		</defs>
		<clipPath id="SVGID_2_">
			<use xlink:href="#SVGID_11_"  style="overflow:visible;"/>
		</clipPath>
		<path class="st0" d="M40.7,164.6l11.9,31.1c25.2,59,60.4,193.7,60.4,193.7c-15.9,22.3-15.9,213-15.9,213H0.7
			c-4.2-197,31.7-421.1,31.7-421.1c0-18,8.3-17,8.3-17l153.4-63.5"/>
		<path class="st0" d="M558.3,164.7l-12.7,31c-17.5,41.5-47.7,150.7-47.7,150.7c-10.6,27.5-5.3,65.4-5.3,65.4
			c9.5,33,14.8,225.6,14.8,225.6h90.1c14.8-92-27.6-450.7-27.6-450.7c0-21.4-11.7-22.3-11.7-22.3l-142.9-52.2"/>
		<circle class="st0" cx="303.4" cy="574" r="13.3"/>
		<line class="st0" x1="315.4" y1="573.4" x2="325.4" y2="573.4"/>
		<path class="st0" d="M229.4,89.9c0,0,78.1-23.5,146.5,4.3"/>
		<path class="st0" d="M371.2,63.7c0,0-50.9-22.1-125.9-2.3"/>
		<path class="st0" d="M492.6,412.5l-22.3,86.8c0,0-8.5,10.1,0,33.4l26.5,104.8H272.1H106.6l26.3-117.6c1.1-23.3-27-107.7-27-107.7"
			/>
		<path class="st1" d="M245.3,61.4c-11.7,2.6-19.3,48.3-20.5,56.5c-6.6,42.5,3,85.1,15.2,125.7c10.7,35.6,20.8,71.4,32,106.8
			c9.4,29.5,25,75.5,32.2,104.1c-9.4-12.6-22.5-34.4-30.2-48.1c-33.4-59.6-68.1-124.2-83.5-191.6c-9.2-40.5-16.4-94.8,12.7-129.3
			C214.1,72.9,229.2,65.1,245.3,61.4z"/>
		<path class="st0" d="M371.2,63.7c0,0,3.6-1.1,7.8,62.4c7.4,110.2-80.8,327.6-89,381.6c0,0,105.8-185.8,123.7-312.5
			C413.8,195.3,439.6,65.2,371.2,63.7z"/>
		<path class="st1" d="M278.5,600c0,0-5.4-77.1,18.5-104.7"/>
	</g>
</g>
</svg>
