<?xml version="1.0" encoding="utf-8"?>
<!-- Generator: Adobe Illustrator 20.1.0, SVG Export Plug-In . SVG Version: 6.00 Build 0)  -->
<svg version="1.1" id="Layer_1" xmlns="http://www.w3.org/2000/svg" xmlns:xlink="http://www.w3.org/1999/xlink" x="0px" y="0px"
	 width="600px" height="600px" viewBox="0 0 600 600" style="enable-background:new 0 0 600 600;" xml:space="preserve">
<style type="text/css">
	.st0{clip-path:url(#SVGID_2_);fill:none;stroke:#7F8080;stroke-width:3;stroke-miterlimit:10;}
	.st1{clip-path:url(#SVGID_2_);fill:none;stroke:#7F8080;stroke-width:3;stroke-linejoin:round;stroke-miterlimit:10;}
	
		.st2{clip-path:url(#SVGID_2_);fill:none;stroke:#7F8080;stroke-width:3;stroke-linecap:round;stroke-linejoin:round;stroke-miterlimit:10;}
	.st3{clip-path:url(#SVGID_4_);fill:none;stroke:#7F8080;stroke-width:3;stroke-miterlimit:10;}
	.st4{clip-path:url(#SVGID_4_);fill:none;stroke:#7F8080;stroke-width:3;stroke-linejoin:round;stroke-miterlimit:10;}
	.st5{clip-path:url(#SVGID_4_);fill:none;stroke:#7F8080;stroke-miterlimit:10;}
	.st6{fill:#FFFFFF;}
	.st7{clip-path:url(#SVGID_6_);fill:none;stroke:#7F8080;stroke-width:3;stroke-miterlimit:10;}
	.st8{clip-path:url(#SVGID_6_);fill:none;stroke:#7F8080;stroke-width:3;stroke-linejoin:round;stroke-miterlimit:10;}
	.st9{clip-path:url(#SVGID_6_);fill:none;stroke:#7F8080;stroke-miterlimit:10;}
	.st10{clip-path:url(#SVGID_8_);fill:none;stroke:#7F8080;stroke-width:3;stroke-miterlimit:10;}
	.st11{clip-path:url(#SVGID_8_);fill:none;stroke:#7F8080;stroke-width:3;stroke-linejoin:round;stroke-miterlimit:10;}
	.st12{clip-path:url(#SVGID_10_);fill:none;stroke:#7F8080;stroke-width:3;stroke-miterlimit:10;}
	.st13{clip-path:url(#SVGID_10_);fill:none;stroke:#7F8080;stroke-width:3;stroke-linejoin:round;stroke-miterlimit:10;}
	.st14{clip-path:url(#SVGID_12_);fill:none;stroke:#7F8080;stroke-width:3;stroke-miterlimit:10;}
	.st15{clip-path:url(#SVGID_12_);fill:none;stroke:#7F8080;stroke-width:3;stroke-linejoin:round;stroke-miterlimit:10;}
	.st16{clip-path:url(#SVGID_14_);fill:none;stroke:#7F8080;stroke-width:3;stroke-miterlimit:10;}
	.st17{clip-path:url(#SVGID_14_);fill:none;stroke:#7F8080;stroke-width:3;stroke-linejoin:round;stroke-miterlimit:10;}
	
		.st18{clip-path:url(#SVGID_14_);fill:none;stroke:#7F8080;stroke-width:3;stroke-linecap:round;stroke-linejoin:round;stroke-miterlimit:10;}
	.st19{clip-path:url(#SVGID_16_);fill:none;stroke:#7F8080;stroke-width:3;stroke-miterlimit:10;}
	.st20{clip-path:url(#SVGID_16_);fill:none;stroke:#7F8080;stroke-miterlimit:10;}
	.st21{clip-path:url(#SVGID_18_);fill:none;stroke:#7F8080;stroke-width:3;stroke-miterlimit:10;}
	.st22{clip-path:url(#SVGID_18_);fill:none;stroke:#7F8080;stroke-miterlimit:10;}
	.st23{fill:none;stroke:#7F8080;stroke-width:3;stroke-miterlimit:10;}
	.st24{clip-path:url(#SVGID_20_);fill:none;stroke:#7F8080;stroke-width:3;stroke-miterlimit:10;}
	.st25{clip-path:url(#SVGID_20_);fill:none;stroke:#7F8080;stroke-miterlimit:10;}
	.st26{clip-path:url(#SVGID_22_);fill:none;stroke:#7F8080;stroke-width:3;stroke-miterlimit:10;}
	.st27{clip-path:url(#SVGID_22_);fill:none;stroke:#7F8080;stroke-width:3;stroke-linejoin:round;stroke-miterlimit:10;}
	.st28{clip-path:url(#SVGID_22_);fill:none;stroke:#7F8080;stroke-miterlimit:10;}
	.st29{clip-path:url(#SVGID_24_);fill:none;stroke:#7F8080;stroke-width:3;stroke-miterlimit:10;}
	.st30{clip-path:url(#SVGID_24_);fill:none;stroke:#7F8080;stroke-width:3;stroke-linejoin:round;stroke-miterlimit:10;}
	.st31{clip-path:url(#SVGID_24_);fill:none;stroke:#7F8080;stroke-miterlimit:10;}
	.st32{clip-path:url(#SVGID_26_);fill:none;stroke:#7F8080;stroke-width:3;stroke-miterlimit:10;}
	.st33{clip-path:url(#SVGID_26_);fill:none;stroke:#7F8080;stroke-width:3;stroke-linejoin:round;stroke-miterlimit:10;}
	.st34{clip-path:url(#SVGID_26_);fill:none;stroke:#7F8080;stroke-miterlimit:10;}
	.st35{clip-path:url(#SVGID_28_);fill:none;stroke:#7F8080;stroke-width:3;stroke-linejoin:round;stroke-miterlimit:10;}
	.st36{clip-path:url(#SVGID_28_);fill:#FFFFFF;}
	.st37{clip-path:url(#SVGID_28_);fill:none;stroke:#7F8080;stroke-miterlimit:10;}
	.st38{clip-path:url(#SVGID_28_);fill:none;stroke:#7F8080;stroke-width:3;stroke-miterlimit:10;}
	.st39{clip-path:url(#SVGID_30_);fill:none;stroke:#7F8080;stroke-width:3;stroke-linejoin:round;stroke-miterlimit:10;}
	.st40{clip-path:url(#SVGID_30_);fill:#FFFFFF;}
	.st41{clip-path:url(#SVGID_30_);fill:none;stroke:#7F8080;stroke-miterlimit:10;}
	.st42{clip-path:url(#SVGID_30_);fill:none;stroke:#7F8080;stroke-width:3;stroke-miterlimit:10;}
	.st43{clip-path:url(#SVGID_32_);fill:none;stroke:#7F8080;stroke-width:3;stroke-linejoin:round;stroke-miterlimit:10;}
	.st44{clip-path:url(#SVGID_32_);fill:#FFFFFF;}
	.st45{clip-path:url(#SVGID_32_);fill:none;stroke:#7F8080;stroke-width:3;stroke-miterlimit:10;}
	.st46{fill:none;stroke:#7F8080;stroke-width:3;stroke-linejoin:round;stroke-miterlimit:10;}
	.st47{clip-path:url(#SVGID_34_);fill:none;stroke:#7F8080;stroke-width:3;stroke-linejoin:round;stroke-miterlimit:10;}
	.st48{clip-path:url(#SVGID_34_);fill:#FFFFFF;}
	.st49{clip-path:url(#SVGID_34_);fill:none;stroke:#7F8080;stroke-width:3;stroke-miterlimit:10;}
	.st50{clip-path:url(#SVGID_34_);fill:none;stroke:#7F8080;stroke-miterlimit:10;}
	.st51{clip-path:url(#SVGID_36_);fill:none;stroke:#7F8080;stroke-width:3;stroke-linejoin:round;stroke-miterlimit:10;}
	.st52{clip-path:url(#SVGID_36_);fill:#FFFFFF;}
	.st53{clip-path:url(#SVGID_36_);fill:none;stroke:#7F8080;stroke-miterlimit:10;}
	.st54{clip-path:url(#SVGID_36_);fill:none;stroke:#7F8080;stroke-width:3;stroke-miterlimit:10;}
	.st55{clip-path:url(#SVGID_38_);fill:none;stroke:#7F8080;stroke-width:3;stroke-linejoin:round;stroke-miterlimit:10;}
	.st56{clip-path:url(#SVGID_38_);fill:#FFFFFF;}
	.st57{clip-path:url(#SVGID_38_);fill:none;stroke:#7F8080;stroke-width:3;stroke-miterlimit:10;}
	.st58{clip-path:url(#SVGID_40_);}
	.st59{fill:none;stroke:#7F8080;stroke-width:3;stroke-miterlimit:10;stroke-dasharray:2.9925,2.9925;}
	.st60{fill:none;stroke:#7F8080;stroke-width:3;stroke-miterlimit:10;stroke-dasharray:3,3;}
	.st61{fill:none;stroke:#7F8080;stroke-width:3;stroke-miterlimit:10;stroke-dasharray:3.0177,3.0177;}
	.st62{clip-path:url(#SVGID_42_);}
</style>
<g>
	<rect x="0.1" y="0" class="st6" width="600" height="600"/>
	<g>
		<defs>
			<rect id="SVGID_23_" x="0.1" y="0" width="600" height="600"/>
		</defs>
		<use xlink:href="#SVGID_23_"  style="overflow:visible;fill:#FFFFFF;"/>
		<clipPath id="SVGID_2_">
			<use xlink:href="#SVGID_23_"  style="overflow:visible;"/>
		</clipPath>
		<path class="st0" d="M38.1-3.9L50,27.2c25.2,59,60.4,193.5,60.4,193.5c-15.9,22.3-15.9,387.7-15.9,387.7H-2
			c-4.2-197,31.7-595.8,31.7-595.8c0-18,8.3-16.9,8.3-16.9l133.6-49.9"/>
		<path class="st0" d="M555.6-3.8l-12.7,31c-17.5,41.5-47.7,150.7-47.7,150.7c-10.6,27.5-5.3,65.1-5.3,65.1
			c9.5,33,14.8,365.3,14.8,365.3h90.1c14.8-92-27.6-590.4-27.6-590.4c0-21.4-11.7-22.2-11.7-22.2L414.8-58"/>
		<circle class="st0" cx="351.6" cy="383.2" r="13.3"/>
		<line class="st0" x1="361.5" y1="383.4" x2="371.5" y2="383.4"/>
		<circle class="st0" cx="351.6" cy="500.8" r="13.3"/>
		<line class="st0" x1="361.5" y1="500.4" x2="371.5" y2="500.4"/>
		<circle class="st0" cx="243.4" cy="383.2" r="13.3"/>
		<line class="st0" x1="253.5" y1="383.4" x2="263.5" y2="383.4"/>
		<circle class="st0" cx="364.3" cy="281.4" r="13.3"/>
		<line class="st0" x1="374.5" y1="281.4" x2="384.5" y2="281.4"/>
		<circle class="st0" cx="218" cy="278.2" r="13.3"/>
		<line class="st0" x1="228.5" y1="278.4" x2="237.5" y2="278.4"/>
		<circle class="st0" cx="243.4" cy="500.8" r="13.3"/>
		<line class="st0" x1="253.5" y1="500.4" x2="263.5" y2="500.4"/>
		<path class="st0" d="M489.9,243.9l-12.7,86.8c0,0-3.7,16.1,0,33.5l27.6,244.6l-235.3-3.5H94.8l22.6-254.2
			c1.1-23.3-11.1-110.8-11.1-110.8"/>
		<path class="st1" d="M208.3,601.2c0,0,8.9-178.5,10.4-213.6c1-22.9,45.4-60.1,91.3-115c39.7-47.4,147.1-227.4,164.6-292.7
			L411.1-9.6l26.7-7.7c0,0-32.3-72.9-74.4-85.6c0,0-64.3-22.3-142.8,5.3c0,0-39.9,20.1-72.5,79.5l30.1,13.8l-65.7-17.5
			c0,0,56.2,139.8,91.2,209.8c0,0,66.3,125.4,69.8,115.5"/>
		<path class="st0" d="M247,342c0,0,37.3-45.2,55.3-101.2c0,0,61.7-190.7,64.9-269.1c0,0,5.7-70.6-3.8-74.5"/>
		<path class="st0" d="M220.6-97.6c0,0-8.5,44.5,11.7,141c0,0,40.4,197.5,57.4,231.1"/>
		<path class="st0" d="M417.8,13.7c0,0,10.6-4.2,21.2-5.3"/>
	</g>
</g>
</svg>
