<?xml version="1.0" encoding="utf-8"?>
<!-- Generator: Adobe Illustrator 20.1.0, SVG Export Plug-In . SVG Version: 6.00 Build 0)  -->
<svg version="1.1" id="Layer_1" xmlns="http://www.w3.org/2000/svg" xmlns:xlink="http://www.w3.org/1999/xlink" x="0px" y="0px"
	 width="600px" height="600px" viewBox="0 0 600 600" style="enable-background:new 0 0 600 600;" xml:space="preserve">
<style type="text/css">
	.st0{clip-path:url(#SVGID_2_);fill:none;stroke:#7F8080;stroke-width:3;stroke-miterlimit:10;}
	.st1{clip-path:url(#SVGID_2_);fill:none;stroke:#7F8080;stroke-width:3;stroke-linejoin:round;stroke-miterlimit:10;}
	
		.st2{clip-path:url(#SVGID_2_);fill:none;stroke:#7F8080;stroke-width:3;stroke-linecap:round;stroke-linejoin:round;stroke-miterlimit:10;}
	.st3{clip-path:url(#SVGID_4_);fill:none;stroke:#7F8080;stroke-width:3;stroke-miterlimit:10;}
	.st4{clip-path:url(#SVGID_4_);fill:none;stroke:#7F8080;stroke-width:3;stroke-linejoin:round;stroke-miterlimit:10;}
	.st5{clip-path:url(#SVGID_4_);fill:none;stroke:#7F8080;stroke-miterlimit:10;}
	.st6{fill:#FFFFFF;}
	.st7{clip-path:url(#SVGID_6_);fill:none;stroke:#7F8080;stroke-width:3;stroke-miterlimit:10;}
	.st8{clip-path:url(#SVGID_6_);fill:none;stroke:#7F8080;stroke-width:3;stroke-linejoin:round;stroke-miterlimit:10;}
	.st9{clip-path:url(#SVGID_6_);fill:none;stroke:#7F8080;stroke-miterlimit:10;}
	.st10{clip-path:url(#SVGID_8_);fill:none;stroke:#7F8080;stroke-width:3;stroke-miterlimit:10;}
	.st11{clip-path:url(#SVGID_8_);fill:none;stroke:#7F8080;stroke-width:3;stroke-linejoin:round;stroke-miterlimit:10;}
	.st12{clip-path:url(#SVGID_10_);fill:none;stroke:#7F8080;stroke-width:3;stroke-miterlimit:10;}
	.st13{clip-path:url(#SVGID_10_);fill:none;stroke:#7F8080;stroke-width:3;stroke-linejoin:round;stroke-miterlimit:10;}
	.st14{clip-path:url(#SVGID_12_);fill:none;stroke:#7F8080;stroke-width:3;stroke-miterlimit:10;}
	.st15{clip-path:url(#SVGID_12_);fill:none;stroke:#7F8080;stroke-width:3;stroke-linejoin:round;stroke-miterlimit:10;}
	.st16{clip-path:url(#SVGID_14_);fill:none;stroke:#7F8080;stroke-width:3;stroke-miterlimit:10;}
	.st17{clip-path:url(#SVGID_14_);fill:none;stroke:#7F8080;stroke-width:3;stroke-linejoin:round;stroke-miterlimit:10;}
	
		.st18{clip-path:url(#SVGID_14_);fill:none;stroke:#7F8080;stroke-width:3;stroke-linecap:round;stroke-linejoin:round;stroke-miterlimit:10;}
	.st19{clip-path:url(#SVGID_16_);fill:none;stroke:#7F8080;stroke-width:3;stroke-miterlimit:10;}
	.st20{clip-path:url(#SVGID_16_);fill:none;stroke:#7F8080;stroke-miterlimit:10;}
	.st21{clip-path:url(#SVGID_18_);fill:none;stroke:#7F8080;stroke-width:3;stroke-miterlimit:10;}
	.st22{clip-path:url(#SVGID_18_);fill:none;stroke:#7F8080;stroke-miterlimit:10;}
	.st23{fill:none;stroke:#7F8080;stroke-width:3;stroke-miterlimit:10;}
	.st24{clip-path:url(#SVGID_20_);fill:none;stroke:#7F8080;stroke-width:3;stroke-miterlimit:10;}
	.st25{clip-path:url(#SVGID_20_);fill:none;stroke:#7F8080;stroke-miterlimit:10;}
	.st26{clip-path:url(#SVGID_22_);fill:none;stroke:#7F8080;stroke-width:3;stroke-miterlimit:10;}
	.st27{clip-path:url(#SVGID_22_);fill:none;stroke:#7F8080;stroke-width:3;stroke-linejoin:round;stroke-miterlimit:10;}
	.st28{clip-path:url(#SVGID_22_);fill:none;stroke:#7F8080;stroke-miterlimit:10;}
	.st29{clip-path:url(#SVGID_24_);fill:none;stroke:#7F8080;stroke-width:3;stroke-miterlimit:10;}
	.st30{clip-path:url(#SVGID_24_);fill:none;stroke:#7F8080;stroke-width:3;stroke-linejoin:round;stroke-miterlimit:10;}
	.st31{clip-path:url(#SVGID_24_);fill:none;stroke:#7F8080;stroke-miterlimit:10;}
	.st32{clip-path:url(#SVGID_26_);fill:none;stroke:#7F8080;stroke-width:3;stroke-miterlimit:10;}
	.st33{clip-path:url(#SVGID_26_);fill:none;stroke:#7F8080;stroke-width:3;stroke-linejoin:round;stroke-miterlimit:10;}
	.st34{clip-path:url(#SVGID_26_);fill:none;stroke:#7F8080;stroke-miterlimit:10;}
	.st35{clip-path:url(#SVGID_28_);fill:none;stroke:#7F8080;stroke-width:3;stroke-linejoin:round;stroke-miterlimit:10;}
	.st36{clip-path:url(#SVGID_28_);fill:#FFFFFF;}
	.st37{clip-path:url(#SVGID_28_);fill:none;stroke:#7F8080;stroke-miterlimit:10;}
	.st38{clip-path:url(#SVGID_28_);fill:none;stroke:#7F8080;stroke-width:3;stroke-miterlimit:10;}
	.st39{clip-path:url(#SVGID_30_);fill:none;stroke:#7F8080;stroke-width:3;stroke-linejoin:round;stroke-miterlimit:10;}
	.st40{clip-path:url(#SVGID_30_);fill:#FFFFFF;}
	.st41{clip-path:url(#SVGID_30_);fill:none;stroke:#7F8080;stroke-miterlimit:10;}
	.st42{clip-path:url(#SVGID_30_);fill:none;stroke:#7F8080;stroke-width:3;stroke-miterlimit:10;}
	.st43{clip-path:url(#SVGID_32_);fill:none;stroke:#7F8080;stroke-width:3;stroke-linejoin:round;stroke-miterlimit:10;}
	.st44{clip-path:url(#SVGID_32_);fill:#FFFFFF;}
	.st45{clip-path:url(#SVGID_32_);fill:none;stroke:#7F8080;stroke-width:3;stroke-miterlimit:10;}
	.st46{fill:none;stroke:#7F8080;stroke-width:3;stroke-linejoin:round;stroke-miterlimit:10;}
	.st47{clip-path:url(#SVGID_34_);fill:none;stroke:#7F8080;stroke-width:3;stroke-linejoin:round;stroke-miterlimit:10;}
	.st48{clip-path:url(#SVGID_34_);fill:#FFFFFF;}
	.st49{clip-path:url(#SVGID_34_);fill:none;stroke:#7F8080;stroke-width:3;stroke-miterlimit:10;}
	.st50{clip-path:url(#SVGID_34_);fill:none;stroke:#7F8080;stroke-miterlimit:10;}
	.st51{clip-path:url(#SVGID_36_);fill:none;stroke:#7F8080;stroke-width:3;stroke-linejoin:round;stroke-miterlimit:10;}
	.st52{clip-path:url(#SVGID_36_);fill:#FFFFFF;}
	.st53{clip-path:url(#SVGID_36_);fill:none;stroke:#7F8080;stroke-miterlimit:10;}
	.st54{clip-path:url(#SVGID_36_);fill:none;stroke:#7F8080;stroke-width:3;stroke-miterlimit:10;}
	.st55{clip-path:url(#SVGID_38_);fill:none;stroke:#7F8080;stroke-width:3;stroke-linejoin:round;stroke-miterlimit:10;}
	.st56{clip-path:url(#SVGID_38_);fill:#FFFFFF;}
	.st57{clip-path:url(#SVGID_38_);fill:none;stroke:#7F8080;stroke-width:3;stroke-miterlimit:10;}
	.st58{clip-path:url(#SVGID_40_);}
	.st59{fill:none;stroke:#7F8080;stroke-width:3;stroke-miterlimit:10;stroke-dasharray:2.9925,2.9925;}
	.st60{fill:none;stroke:#7F8080;stroke-width:3;stroke-miterlimit:10;stroke-dasharray:3,3;}
	.st61{fill:none;stroke:#7F8080;stroke-width:3;stroke-miterlimit:10;stroke-dasharray:3.0177,3.0177;}
	.st62{clip-path:url(#SVGID_42_);}
</style>
<g>
	<rect x="0.1" y="0" class="st6" width="600" height="600"/>
	<g>
		<defs>
			<rect id="SVGID_9_" x="0.1" y="0" width="600" height="600"/>
		</defs>
		<clipPath id="SVGID_2_">
			<use xlink:href="#SVGID_9_"  style="overflow:visible;"/>
		</clipPath>
		<path class="st0" d="M38.1,161.4L50,192.6c25.2,59,60.4,193.8,60.4,193.8c-15.9,22.3-15.9,213.1-15.9,213.1H-2
			c-4.2-197,31.7-421.2,31.7-421.2c0-18,8.3-17.1,8.3-17.1l133.6-50"/>
		<path class="st0" d="M555.6,161.6l-12.7,31c-17.5,41.5-47.7,150.7-47.7,150.7c-10.6,27.5-5.3,65.5-5.3,65.5
			c9.5,33,14.8,225.7,14.8,225.7h90.1c14.8-92-27.6-450.8-27.6-450.8c0-21.4-11.7-22.4-11.7-22.4l-140.8-53.9"/>
		<circle class="st0" cx="300.7" cy="570.8" r="13.3"/>
		<line class="st0" x1="311.5" y1="570.4" x2="321.5" y2="570.4"/>
		<path class="st0" d="M489.9,409.3l-22.3,86.8c0,0-8.5,10.2,0,33.5l26.5,104.9H269.4H103.9l26.3-117.7c1.1-23.3-27-107.7-27-107.7"
			/>
		<path class="st1" d="M265,635.9v-78.4l47.5-81.6c0,0,144.6-265.4,162.1-330.7l-63.5,10.6l26.7-7.7c0,0-32.3-72.9-74.4-85.6
			c0,0-64.3-22.3-142.8,5.3c0,0-39.9,20.1-72.5,79.5l30.1,13.8l-65.7-17.5c0,0,59.4,139.8,94.3,209.8c0,0,75.7,143.5,79.2,133.6"/>
		<path class="st0" d="M276.7,541.8c0,0,10.7-84.7,31.9-132.6c0,0,55.4-193.9,58.6-272.3c0,0,5.7-70.6-3.8-74.5"/>
		<path class="st0" d="M220.6,67.8c0,0-8.5,44.5,11.7,141c0,0,47.6,199.9,64.6,233.5"/>
		<line class="st0" x1="178.2" y1="161.1" x2="218.9" y2="126.1"/>
		<line class="st0" x1="367.7" y1="129.3" x2="411.5" y2="155.8"/>
		<path class="st0" d="M417.8,179.1c0,0,10.6-4.2,21.2-5.3"/>
		<path class="st0" d="M218.9,87.9c0,0,62.2-26.5,150.2,0"/>
	</g>
</g>
<g>
	<g>
		<g>
			<defs>
				<rect id="SVGID_19_" x="0.1" y="704" width="600" height="600"/>
			</defs>
			<clipPath id="SVGID_4_">
				<use xlink:href="#SVGID_19_"  style="overflow:visible;"/>
			</clipPath>
			<path class="st5" d="M218.9,578.9c0,0,62.2-26.5,150.2,0"/>
		</g>
	</g>
</g>
</svg>
