<?xml version="1.0" encoding="utf-8"?>
<!-- Generator: Adobe Illustrator 20.1.0, SVG Export Plug-In . SVG Version: 6.00 Build 0)  -->
<svg version="1.1" id="Layer_1" xmlns="http://www.w3.org/2000/svg" xmlns:xlink="http://www.w3.org/1999/xlink" x="0px" y="0px"
	 width="600px" height="600px" viewBox="0 0 600 600" style="enable-background:new 0 0 600 600;" xml:space="preserve">
<style type="text/css">
	.st0{clip-path:url(#SVGID_2_);fill:none;stroke:#7F8080;stroke-width:3;stroke-miterlimit:10;}
	.st1{clip-path:url(#SVGID_2_);fill:none;stroke:#7F8080;stroke-width:3;stroke-linejoin:round;stroke-miterlimit:10;}
	
		.st2{clip-path:url(#SVGID_2_);fill:none;stroke:#7F8080;stroke-width:3;stroke-linecap:round;stroke-linejoin:round;stroke-miterlimit:10;}
	.st3{clip-path:url(#SVGID_4_);fill:none;stroke:#7F8080;stroke-width:3;stroke-miterlimit:10;}
	.st4{clip-path:url(#SVGID_4_);fill:none;stroke:#7F8080;stroke-width:3;stroke-linejoin:round;stroke-miterlimit:10;}
	.st5{clip-path:url(#SVGID_4_);fill:none;stroke:#7F8080;stroke-miterlimit:10;}
	.st6{fill:#FFFFFF;}
	.st7{clip-path:url(#SVGID_6_);fill:none;stroke:#7F8080;stroke-width:3;stroke-miterlimit:10;}
	.st8{clip-path:url(#SVGID_6_);fill:none;stroke:#7F8080;stroke-width:3;stroke-linejoin:round;stroke-miterlimit:10;}
	.st9{clip-path:url(#SVGID_6_);fill:none;stroke:#7F8080;stroke-miterlimit:10;}
	.st10{clip-path:url(#SVGID_8_);fill:none;stroke:#7F8080;stroke-width:3;stroke-miterlimit:10;}
	.st11{clip-path:url(#SVGID_8_);fill:none;stroke:#7F8080;stroke-width:3;stroke-linejoin:round;stroke-miterlimit:10;}
	.st12{clip-path:url(#SVGID_10_);fill:none;stroke:#7F8080;stroke-width:3;stroke-miterlimit:10;}
	.st13{clip-path:url(#SVGID_10_);fill:none;stroke:#7F8080;stroke-width:3;stroke-linejoin:round;stroke-miterlimit:10;}
	.st14{clip-path:url(#SVGID_12_);fill:none;stroke:#7F8080;stroke-width:3;stroke-miterlimit:10;}
	.st15{clip-path:url(#SVGID_12_);fill:none;stroke:#7F8080;stroke-width:3;stroke-linejoin:round;stroke-miterlimit:10;}
	.st16{clip-path:url(#SVGID_14_);fill:none;stroke:#7F8080;stroke-width:3;stroke-miterlimit:10;}
	.st17{clip-path:url(#SVGID_14_);fill:none;stroke:#7F8080;stroke-width:3;stroke-linejoin:round;stroke-miterlimit:10;}
	
		.st18{clip-path:url(#SVGID_14_);fill:none;stroke:#7F8080;stroke-width:3;stroke-linecap:round;stroke-linejoin:round;stroke-miterlimit:10;}
	.st19{clip-path:url(#SVGID_16_);fill:none;stroke:#7F8080;stroke-width:3;stroke-miterlimit:10;}
	.st20{clip-path:url(#SVGID_16_);fill:none;stroke:#7F8080;stroke-miterlimit:10;}
	.st21{clip-path:url(#SVGID_18_);fill:none;stroke:#7F8080;stroke-width:3;stroke-miterlimit:10;}
	.st22{clip-path:url(#SVGID_18_);fill:none;stroke:#7F8080;stroke-miterlimit:10;}
	.st23{fill:none;stroke:#7F8080;stroke-width:3;stroke-miterlimit:10;}
	.st24{clip-path:url(#SVGID_20_);fill:none;stroke:#7F8080;stroke-width:3;stroke-miterlimit:10;}
	.st25{clip-path:url(#SVGID_20_);fill:none;stroke:#7F8080;stroke-miterlimit:10;}
	.st26{clip-path:url(#SVGID_22_);fill:none;stroke:#7F8080;stroke-width:3;stroke-miterlimit:10;}
	.st27{clip-path:url(#SVGID_22_);fill:none;stroke:#7F8080;stroke-width:3;stroke-linejoin:round;stroke-miterlimit:10;}
	.st28{clip-path:url(#SVGID_22_);fill:none;stroke:#7F8080;stroke-miterlimit:10;}
	.st29{clip-path:url(#SVGID_24_);fill:none;stroke:#7F8080;stroke-width:3;stroke-miterlimit:10;}
	.st30{clip-path:url(#SVGID_24_);fill:none;stroke:#7F8080;stroke-width:3;stroke-linejoin:round;stroke-miterlimit:10;}
	.st31{clip-path:url(#SVGID_24_);fill:none;stroke:#7F8080;stroke-miterlimit:10;}
	.st32{clip-path:url(#SVGID_26_);fill:none;stroke:#7F8080;stroke-width:3;stroke-miterlimit:10;}
	.st33{clip-path:url(#SVGID_26_);fill:none;stroke:#7F8080;stroke-width:3;stroke-linejoin:round;stroke-miterlimit:10;}
	.st34{clip-path:url(#SVGID_26_);fill:none;stroke:#7F8080;stroke-miterlimit:10;}
	.st35{clip-path:url(#SVGID_28_);fill:none;stroke:#7F8080;stroke-width:3;stroke-linejoin:round;stroke-miterlimit:10;}
	.st36{clip-path:url(#SVGID_28_);fill:#FFFFFF;}
	.st37{clip-path:url(#SVGID_28_);fill:none;stroke:#7F8080;stroke-miterlimit:10;}
	.st38{clip-path:url(#SVGID_28_);fill:none;stroke:#7F8080;stroke-width:3;stroke-miterlimit:10;}
	.st39{clip-path:url(#SVGID_30_);fill:none;stroke:#7F8080;stroke-width:3;stroke-linejoin:round;stroke-miterlimit:10;}
	.st40{clip-path:url(#SVGID_30_);fill:#FFFFFF;}
	.st41{clip-path:url(#SVGID_30_);fill:none;stroke:#7F8080;stroke-miterlimit:10;}
	.st42{clip-path:url(#SVGID_30_);fill:none;stroke:#7F8080;stroke-width:3;stroke-miterlimit:10;}
	.st43{clip-path:url(#SVGID_32_);fill:none;stroke:#7F8080;stroke-width:3;stroke-linejoin:round;stroke-miterlimit:10;}
	.st44{clip-path:url(#SVGID_32_);fill:#FFFFFF;}
	.st45{clip-path:url(#SVGID_32_);fill:none;stroke:#7F8080;stroke-width:3;stroke-miterlimit:10;}
	.st46{fill:none;stroke:#7F8080;stroke-width:3;stroke-linejoin:round;stroke-miterlimit:10;}
	.st47{clip-path:url(#SVGID_34_);fill:none;stroke:#7F8080;stroke-width:3;stroke-linejoin:round;stroke-miterlimit:10;}
	.st48{clip-path:url(#SVGID_34_);fill:#FFFFFF;}
	.st49{clip-path:url(#SVGID_34_);fill:none;stroke:#7F8080;stroke-width:3;stroke-miterlimit:10;}
	.st50{clip-path:url(#SVGID_34_);fill:none;stroke:#7F8080;stroke-miterlimit:10;}
	.st51{clip-path:url(#SVGID_36_);fill:none;stroke:#7F8080;stroke-width:3;stroke-linejoin:round;stroke-miterlimit:10;}
	.st52{clip-path:url(#SVGID_36_);fill:#FFFFFF;}
	.st53{clip-path:url(#SVGID_36_);fill:none;stroke:#7F8080;stroke-miterlimit:10;}
	.st54{clip-path:url(#SVGID_36_);fill:none;stroke:#7F8080;stroke-width:3;stroke-miterlimit:10;}
	.st55{clip-path:url(#SVGID_38_);fill:none;stroke:#7F8080;stroke-width:3;stroke-linejoin:round;stroke-miterlimit:10;}
	.st56{clip-path:url(#SVGID_38_);fill:#FFFFFF;}
	.st57{clip-path:url(#SVGID_38_);fill:none;stroke:#7F8080;stroke-width:3;stroke-miterlimit:10;}
	.st58{clip-path:url(#SVGID_40_);}
	.st59{fill:none;stroke:#7F8080;stroke-width:3;stroke-miterlimit:10;stroke-dasharray:2.9925,2.9925;}
	.st60{fill:none;stroke:#7F8080;stroke-width:3;stroke-miterlimit:10;stroke-dasharray:3,3;}
	.st61{fill:none;stroke:#7F8080;stroke-width:3;stroke-miterlimit:10;stroke-dasharray:3.0177,3.0177;}
	.st62{clip-path:url(#SVGID_42_);}
</style>
<g>
	<defs>
		<rect id="SVGID_1_" width="600" height="600"/>
	</defs>
	<use xlink:href="#SVGID_1_"  style="overflow:visible;fill:#FFFFFF;"/>
	<clipPath id="SVGID_2_">
		<use xlink:href="#SVGID_1_"  style="overflow:visible;"/>
	</clipPath>
	<line class="st0" x1="202.9" y1="164.8" x2="227.5" y2="135.7"/>
	<line class="st0" x1="371.2" y1="137.8" x2="398.2" y2="164.8"/>
	<line class="st0" x1="408" y1="201" x2="389" y2="184.2"/>
	<path class="st0" d="M40.7,164.7l11.9,31.1c25.2,59,60.4,194.8,60.4,194.8c-15.9,22.3-15.9,214.1-15.9,214.1H0.7
		c-4.2-197,31.7-422.2,31.7-422.2c0-18,8.3-17.6,8.3-17.6l159.7-63.8"/>
	<path class="st0" d="M558.3,164.8l-12.7,31c-17.5,41.5-47.7,150.7-47.7,150.7c-10.6,27.5-5.3,66.5-5.3,66.5
		c9.5,33,14.8,226.7,14.8,226.7h90.1c14.8-93-27.6-451.8-27.6-451.8c0-21.4-11.7-22.9-11.7-22.9l-146.9-56.4"/>
	<circle class="st0" cx="303.3" cy="574" r="13.3"/>
	<line class="st0" x1="317" y1="575.7" x2="327" y2="575.7"/>
	<path class="st0" d="M224.6,92.2c0,0,82.4-26.8,150.8,1.1"/>
	<path class="st1" d="M279.7,600c0,0-7.6-33.8,7.2-66.7c0,0,117.7-276.7,127.2-313.8c0,0,10.6-23.3,0-35.2l-15.9-19.4l28.6-15.7
		c0,0-11.4-48.7-37.8-69.2c0,0-24.5-21.2-17.8-16.1c9.7,7.6,0,76.2,0,76.2c0,58.6-51.5,248.5-75.3,333
		c-7.1,25.3-11.8,41.2-11.8,41.2c-10.1,24.4,0,35.6,0,35.6"/>
	<path class="st2" d="M295.9,473c0,0-92.3-196-112.9-266c0,0-4-10.9,0-14.4l19.9-27.8l-25.4-15.8c0,0,26.8-70,54.3-85.1
		c0,0-12.7,16.6-4.2,71.8c0,0,36.4,253.3,76,310"/>
	<path class="st0" d="M371.2,63.8c0,0-64.4-19.6-139.4,0.2"/>
	<path class="st0" d="M492.5,412.5l-22.3,86.8c0,0-8.5,11.3,0,34.5l26.5,105.9H272H106.5L132.8,521c1.1-23.3-27-108.2-27-108.2"/>
</g>
<g>
	<defs>
		<rect id="SVGID_3_" y="651.2" width="600" height="600"/>
	</defs>
	<use xlink:href="#SVGID_3_"  style="overflow:visible;fill:#FFFFFF;"/>
	<clipPath id="SVGID_4_">
		<use xlink:href="#SVGID_3_"  style="overflow:visible;"/>
	</clipPath>
	<path class="st4" d="M269.3,1250.9l5.1-175.6l38-56.2c0,0,144.6-265.4,162.1-330.7L411,698.9l26.7-7.7c0,0-32.3-72.9-74.4-85.6
		c0,0-64.3-22.3-142.8,5.3c0,0-39.9,20.1-72.5,79.5l30.1,13.8l-65.7-17.5c0,0,59.4,139.8,94.3,209.8c0,0,78.8,140.4,82.3,130.5"/>
	<path class="st3" d="M283,1062.8c0,0,12.3-76.2,28.8-129.4c0,0,55.4-193.9,58.6-272.3c0,0,5.7-70.6-3.8-74.5"/>
</g>
</svg>
