<?xml version="1.0" encoding="utf-8"?>
<!-- Generator: Adobe Illustrator 20.1.0, SVG Export Plug-In . SVG Version: 6.00 Build 0)  -->
<svg version="1.1" id="Layer_1" xmlns="http://www.w3.org/2000/svg" xmlns:xlink="http://www.w3.org/1999/xlink" x="0px" y="0px"
	 viewBox="0 0 600 600" style="enable-background:new 0 0 600 600;" xml:space="preserve">
<style type="text/css">
	.st0{fill:#FFFFFF;}
	.st1{clip-path:url(#SVGID_2_);}
	.st2{fill:none;stroke:#7F8080;stroke-width:3;stroke-linecap:round;stroke-linejoin:round;stroke-miterlimit:10;}
	.st3{clip-path:url(#SVGID_4_);}
	.st4{clip-path:url(#SVGID_6_);}
	.st5{clip-path:url(#SVGID_8_);}
	.st6{clip-path:url(#SVGID_10_);}
</style>
<g>
	<rect x="0.1" y="0.3" class="st0" width="600" height="600"/>
	<g>
		<defs>
			<rect id="SVGID_9_" x="0.1" y="0.3" width="600" height="600"/>
		</defs>
		<clipPath id="SVGID_2_">
			<use xlink:href="#SVGID_9_"  style="overflow:visible;"/>
		</clipPath>
		<g class="st1">
			<polygon class="st2" points="69.4,137.4 539.4,137.4 539.4,633.4 331.7,633.4 305.4,453.4 278.6,633.4 69.4,633.4 			"/>
			<path class="st2" d="M187.5,169h-6.9c-0.9,0-1.6-0.7-1.6-1.6v-29.4c0-0.9,0.7-1.6,1.6-1.6h6.9c0.9,0,1.6,0.7,1.6,1.6v29.4
				C189.1,168.2,188.4,169,187.5,169z"/>
			<path class="st2" d="M430.1,169h-6.9c-0.9,0-1.6-0.7-1.6-1.6v-29.4c0-0.9,0.7-1.6,1.6-1.6h6.9c0.9,0,1.6,0.7,1.6,1.6v29.4
				C431.7,168.2,431,169,430.1,169z"/>
			<line class="st2" x1="71.3" y1="169" x2="536" y2="169"/>
			<path class="st2" d="M337.4,171.9v164.5c0,0,7,25.1-35,33.1V168.4h-68.7c0,0-11.2-30.8,4.7-30.8"/>
			<line class="st2" x1="305.1" y1="452.7" x2="305.1" y2="369.5"/>
			<line class="st2" x1="182.4" y1="311.9" x2="182.4" y2="171.9"/>
			<line class="st2" x1="428.4" y1="311.9" x2="428.4" y2="171.9"/>
		</g>
	</g>
</g>
</svg>
