<?xml version="1.0" encoding="utf-8"?>
<!-- Generator: Adobe Illustrator 20.1.0, SVG Export Plug-In . SVG Version: 6.00 Build 0)  -->
<svg version="1.1" id="Layer_1" xmlns="http://www.w3.org/2000/svg" xmlns:xlink="http://www.w3.org/1999/xlink" x="0px" y="0px"
	 viewBox="0 0 600 600" style="enable-background:new 0 0 600 600;" xml:space="preserve">
<style type="text/css">
	.st0{fill:#FFFFFF;}
	.st1{clip-path:url(#SVGID_2_);}
	.st2{fill:none;stroke:#7F8080;stroke-width:3;stroke-linecap:round;stroke-linejoin:round;stroke-miterlimit:10;}
	.st3{clip-path:url(#SVGID_4_);fill:#F2F2F2;}
	.st4{clip-path:url(#SVGID_4_);}
	.st5{clip-path:url(#SVGID_6_);}
	.st6{clip-path:url(#SVGID_8_);}
	.st7{clip-path:url(#SVGID_10_);}
	.st8{clip-path:url(#SVGID_12_);}
	.st9{clip-path:url(#SVGID_14_);}
	.st10{clip-path:url(#SVGID_16_);}
	.st11{clip-path:url(#SVGID_16_);fill:none;stroke:#7F8080;stroke-width:3;stroke-linejoin:round;stroke-miterlimit:10;}
	.st12{clip-path:url(#SVGID_16_);fill:#FFFFFF;stroke:#7F8080;stroke-width:3;stroke-linejoin:round;stroke-miterlimit:10;}
	.st13{fill:none;}
	.st14{fill:none;stroke:#7F8080;stroke-width:3;stroke-miterlimit:10;}
	.st15{fill:none;stroke:#7F8080;stroke-width:3;stroke-linejoin:round;stroke-miterlimit:10;}
	.st16{clip-path:url(#SVGID_18_);}
	.st17{clip-path:url(#SVGID_20_);}
</style>
<rect class="st0" width="600" height="600"/>
<g>
	<defs>
		<rect id="SVGID_19_" width="600" height="600"/>
	</defs>
	<clipPath id="SVGID_2_">
		<use xlink:href="#SVGID_19_"  style="overflow:visible;"/>
	</clipPath>
	<g class="st1">
		<g>
			<path class="st2" d="M369.9,132.6c8.5-44.9,11-44.9-5.2-60.4c0,0,9.7-5.2,25.9,0l89.3,39.1c0,0,15.7,3.3,13,19.5
				c-5.5,28.7-4.9,64.6-6,93.8c-2,57.1-9.4,142.3,58.7,165.3c0,0-28.6,355.2,3.6,414.1c0,0-23.2,25-146.6,26.8
				c0,0-57.2,4.5-80.4-23.2c0,0-23.2,33.4-84.9,33.7c0,0-130.5-4.3-173.4-28.4c0,0,17.9-290.4-9.8-423.5c0,0,55,16.1,53.2-132.3
				c0,0-2.2-90.8-3.1-109.6c0,0-8-31.2,11.6-36.6c0,0,55-19.2,88.1-40.6c0,0,14-4.9,25-0.8c-30,36.5,52.3,192.8,80.2,266.9"/>
			<path class="st2" d="M369.9,132.6c0,0-74.8,250.1-80.1,269.2c0,0,0.2,198.2,0.2,204.5l4.8,149.3c0,0,4.9,5.4,5.1,25.3"/>
			<path class="st2" d="M228.9,69.5c0,0,52.4,18.2,135.8,2.8"/>
			<circle class="st2" cx="310.1" cy="419.2" r="8.4"/>
			<circle class="st2" cx="310.1" cy="499.1" r="8.4"/>
			<circle class="st2" cx="310.1" cy="579" r="8.4"/>
			<rect x="383.9" y="329.1" class="st2" width="71" height="12.6"/>
		</g>
		<line class="st14" x1="190.6" y1="151.5" x2="228" y2="135.8"/>
		<path class="st2" d="M298.5,367.8c0,0-164.6-231.6-158-240.6l50.1,24.3l-19.1-10L186.5,82"/>
		<line class="st14" x1="400.5" y1="146.9" x2="369.9" y2="132.6"/>
		<path class="st2" d="M289.8,401.8c0,0,167.5-272.8,163.4-277.3l-52.6,22.4l25.8-11.8l-8.5-49.9"/>
	</g>
</g>
</svg>
