<?xml version="1.0" encoding="utf-8"?>
<!-- Generator: Adobe Illustrator 20.1.0, SVG Export Plug-In . SVG Version: 6.00 Build 0)  -->
<svg version="1.1" id="Layer_1" xmlns="http://www.w3.org/2000/svg" xmlns:xlink="http://www.w3.org/1999/xlink" x="0px" y="0px"
	 viewBox="0 0 600 600" style="enable-background:new 0 0 600 600;" xml:space="preserve">
<style type="text/css">
	.st0{fill:#FFFFFF;}
	.st1{clip-path:url(#SVGID_2_);}
	.st2{fill:none;stroke:#7F8080;stroke-width:3;stroke-linecap:round;stroke-linejoin:round;stroke-miterlimit:10;}
	.st3{clip-path:url(#SVGID_4_);fill:#F2F2F2;}
	.st4{clip-path:url(#SVGID_4_);}
	.st5{clip-path:url(#SVGID_6_);}
	.st6{clip-path:url(#SVGID_8_);}
	.st7{clip-path:url(#SVGID_10_);}
	.st8{clip-path:url(#SVGID_12_);}
	.st9{clip-path:url(#SVGID_14_);}
	.st10{clip-path:url(#SVGID_16_);}
	.st11{clip-path:url(#SVGID_16_);fill:none;stroke:#7F8080;stroke-width:3;stroke-linejoin:round;stroke-miterlimit:10;}
	.st12{clip-path:url(#SVGID_16_);fill:#FFFFFF;stroke:#7F8080;stroke-width:3;stroke-linejoin:round;stroke-miterlimit:10;}
	.st13{fill:none;}
	.st14{fill:none;stroke:#7F8080;stroke-width:3;stroke-miterlimit:10;}
	.st15{fill:none;stroke:#7F8080;stroke-width:3;stroke-linejoin:round;stroke-miterlimit:10;}
	.st16{clip-path:url(#SVGID_18_);}
	.st17{clip-path:url(#SVGID_20_);}
</style>
<rect class="st0" width="600" height="600"/>
<rect class="st13" width="600" height="600"/>
<line class="st14" x1="210.5" y1="153.7" x2="231.1" y2="132.6"/>
<line class="st14" x1="375" y1="128.9" x2="401.1" y2="155.3"/>
<path class="st15" d="M305.2,401.8c0,0,99.4-205.9,110.5-230.4c0,0-6.7-7.3-14.6-16.1l20.9-29.4c0,0-22.7-51.8-17.8-48"/>
<path class="st2" d="M312,370.4c0,0-96.4-146.1-126.1-191.3l24.6-25.5l-31.8-18.2l7.7-53.1"/>
<g>
	<defs>
		<rect id="SVGID_17_" width="600" height="600"/>
	</defs>
	<clipPath id="SVGID_2_">
		<use xlink:href="#SVGID_17_"  style="overflow:visible;"/>
	</clipPath>
	<g class="st1">
		<path class="st2" d="M54.2,389.4c0,0,55,16.1,53.2-132.3c0,0-2.2-90.8-3.1-109.6c0,0-8-31.2,11.6-36.6c0,0,55-19.2,88.1-40.6
			c0,0,14-4.9,25-0.8c-24.5,15.8,60.2,255.1,83.7,301.2c0,0,93.3-286.1,52.2-298.3c0,0,9.7-5.2,25.9,0l89.3,39.1
			c0,0,15.7,3.3,13,19.5c-5.5,28.7-4.9,64.6-6,93.8c-2,57.1-9.4,142.3,58.7,165.3c0,0-28.6,355.2,3.6,414.1c0,0-23.2,25-146.6,26.8
			c0,0-57.2,4.5-80.4-23.2c0,0-23.2,33.4-84.9,33.7c0,0-130.5-4.3-173.4-28.4C64,812.9,81.9,522.6,54.2,389.4z"/>
		<path class="st2" d="M312.5,370.6c0,0-11.9,41.6-10.5,63l10.5,339.1c0,0,0.3,16.1,9.7,34.9"/>
		<path class="st2" d="M228.9,69.5c0,0,52.4,18.2,135.8,2.8"/>
		<circle class="st2" cx="326.6" cy="419.2" r="8.4"/>
		<circle class="st2" cx="326.6" cy="499.1" r="8.4"/>
		<circle class="st2" cx="326.6" cy="579" r="8.4"/>
		<rect x="383.9" y="329.1" class="st2" width="71" height="12.6"/>
	</g>
</g>
<rect class="st13" width="600" height="600"/>
</svg>
