<?xml version="1.0" encoding="utf-8"?>
<!-- Generator: Adobe Illustrator 20.1.0, SVG Export Plug-In . SVG Version: 6.00 Build 0)  -->
<svg version="1.1" id="Layer_1" xmlns="http://www.w3.org/2000/svg" xmlns:xlink="http://www.w3.org/1999/xlink" x="0px" y="0px"
	 viewBox="0 0 600 600" style="enable-background:new 0 0 600 600;" xml:space="preserve">
<style type="text/css">
	.st0{fill:#FFFFFF;}
	.st1{clip-path:url(#SVGID_2_);}
	.st2{fill:none;stroke:#7F8080;stroke-width:3;stroke-linecap:round;stroke-linejoin:round;stroke-miterlimit:10;}
	.st3{clip-path:url(#SVGID_4_);fill:#F2F2F2;}
	.st4{clip-path:url(#SVGID_4_);}
	.st5{clip-path:url(#SVGID_6_);}
	.st6{clip-path:url(#SVGID_8_);}
	.st7{clip-path:url(#SVGID_10_);}
	.st8{clip-path:url(#SVGID_12_);}
	.st9{clip-path:url(#SVGID_14_);}
	.st10{clip-path:url(#SVGID_16_);}
	.st11{clip-path:url(#SVGID_16_);fill:none;stroke:#7F8080;stroke-width:3;stroke-linejoin:round;stroke-miterlimit:10;}
	.st12{clip-path:url(#SVGID_16_);fill:#FFFFFF;stroke:#7F8080;stroke-width:3;stroke-linejoin:round;stroke-miterlimit:10;}
</style>
<g>
	<rect class="st0" width="600" height="600"/>
	<g>
		<defs>
			<rect id="SVGID_5_" width="600" height="600"/>
		</defs>
		<clipPath id="SVGID_2_">
			<use xlink:href="#SVGID_5_"  style="overflow:visible;"/>
		</clipPath>
		<g class="st1">
			<path class="st2" d="M54.2,389.4c0,0,55,16.1,53.2-132.3c0,0,1-109.9,0-128.7c0,0-9.9-35.7,11.6-36.6c0,0,51.8-0.2,84.9-21.5
				c0,0,10.7-10.6,25-0.8c0,0,68.6,284.2,83.7,301.2c0,0,79.9-271.9,52.2-298.3c0,0,8.9-11.9,25.9,0l95.6,20c0,0,12.5,3.3,9.8,19.5
				c-5.5,28.7-8.1,83.7-9.1,112.9c-2,57.1-9.4,142.3,58.7,165.3c0,0-28.6,355.2,3.6,414.1c0,0-23.2,25-146.6,26.8
				c0,0-57.2,4.5-80.4-23.2c0,0-23.2,33.4-84.9,33.7c0,0-130.5-4.3-173.4-28.4C64,812.9,81.9,522.6,54.2,389.4z"/>
			<path class="st2" d="M312.5,370.6c0,0-11.9,41.6-10.5,63l10.5,339.1c0,0,0.3,16.1,9.7,34.9"/>
			<path class="st2" d="M228.9,69.5c0,0,60.3,23.5,135.8,2.8"/>
			<circle class="st2" cx="326.6" cy="419.2" r="8.4"/>
			<circle class="st2" cx="326.6" cy="499.1" r="8.4"/>
			<circle class="st2" cx="326.6" cy="579" r="8.4"/>
			<rect x="383.9" y="329.1" class="st2" width="71" height="12.6"/>
		</g>
	</g>
</g>
</svg>
