<?xml version="1.0" encoding="utf-8"?>
<!-- Generator: Adobe Illustrator 20.1.0, SVG Export Plug-In . SVG Version: 6.00 Build 0)  -->
<svg version="1.1" id="Layer_1" xmlns="http://www.w3.org/2000/svg" xmlns:xlink="http://www.w3.org/1999/xlink" x="0px" y="0px"
	 viewBox="0 0 600 600" style="enable-background:new 0 0 600 600;" xml:space="preserve">
<style type="text/css">
	.st0{fill:#FFFFFF;}
	.st1{clip-path:url(#SVGID_2_);}
	.st2{fill:none;stroke:#7F8080;stroke-width:3;stroke-linecap:round;stroke-linejoin:round;stroke-miterlimit:10;}
	.st3{clip-path:url(#SVGID_4_);fill:#F2F2F2;}
	.st4{clip-path:url(#SVGID_4_);}
	.st5{clip-path:url(#SVGID_6_);}
	.st6{clip-path:url(#SVGID_8_);}
	.st7{clip-path:url(#SVGID_10_);}
	.st8{clip-path:url(#SVGID_12_);}
	.st9{clip-path:url(#SVGID_14_);}
	.st10{clip-path:url(#SVGID_16_);}
	.st11{clip-path:url(#SVGID_16_);fill:none;stroke:#7F8080;stroke-width:3;stroke-linejoin:round;stroke-miterlimit:10;}
	.st12{clip-path:url(#SVGID_16_);fill:#FFFFFF;stroke:#7F8080;stroke-width:3;stroke-linejoin:round;stroke-miterlimit:10;}
</style>
<g>
	<rect x="-0.8" y="0.1" class="st0" width="600" height="600"/>
	<g>
		<defs>
			<rect id="SVGID_15_" x="-0.8" y="0.1" width="600" height="600"/>
		</defs>
		<clipPath id="SVGID_2_">
			<use xlink:href="#SVGID_15_"  style="overflow:visible;"/>
		</clipPath>
		<g class="st1">
			<path class="st2" d="M245.8,68.5c0,0,44.7,17.4,100.8,2.1"/>
			<path class="st2" d="M346.5,70.6c0,0,6.6-8.9,19.2,0l70.9,14.8c0,0,9.3,2.5,7.3,14.5c-4.1,21.3-6,62.1-6.8,83.7
				c-1.5,42.4-7,105.6,43.6,122.6c0,0-21.2,263.5,2.7,307.2c0,0-17.2,18.6-108.7,19.9c0,0-102.9,12.9-120.1-7.7
				c0,0,43.2,15.3-2.6,15.5c0,0-96.8-3.2-128.6-21.1c0,0,13.3-215.4-7.3-314.2c0,0,40.8,11.9,39.4-98.1c0,0,0.7-81.5,0-95.5
				c0,0-7.3-26.5,8.6-27.2c0,0,38.4-0.1,63-16c0,0,8-7.9,18.6-0.6"/>
		</g>
		<path style="clip-path:url(#SVGID_2_);fill:none;stroke:#7F8080;stroke-width:3;stroke-linejoin:round;stroke-miterlimit:10;" d="
			M470.7,467.5l-167.8,0.6c0,0-88.4-5.1-98.4,4.9V493c0,0,54.2-13.9,95.7-9.9l171,1.9"/>
		
			<line style="clip-path:url(#SVGID_2_);fill:none;stroke:#7F8080;stroke-width:3;stroke-linejoin:round;stroke-miterlimit:10;" x1="287.9" y1="467.9" x2="127.3" y2="467.4"/>
		
			<path style="clip-path:url(#SVGID_2_);fill:#FFFFFF;stroke:#7F8080;stroke-width:3;stroke-linejoin:round;stroke-miterlimit:10;" d="
			M303.6,485.8h-14.2c-1.8,0-3.3-1.5-3.3-3.3v-14.2c0-1.8,1.5-3.3,3.3-3.3h14.2c1.8,0,3.3,1.5,3.3,3.3v14.2
			C306.9,484.3,305.4,485.8,303.6,485.8z"/>
		
			<line style="clip-path:url(#SVGID_2_);fill:none;stroke:#7F8080;stroke-width:3;stroke-linejoin:round;stroke-miterlimit:10;" x1="203.9" y1="485.8" x2="128" y2="485.8"/>
	</g>
</g>
</svg>
