<?xml version="1.0" encoding="utf-8"?>
<!-- Generator: Adobe Illustrator 20.1.0, SVG Export Plug-In . SVG Version: 6.00 Build 0)  -->
<svg version="1.1" id="Layer_1" xmlns="http://www.w3.org/2000/svg" xmlns:xlink="http://www.w3.org/1999/xlink" x="0px" y="0px"
	 viewBox="0 0 600 600" style="enable-background:new 0 0 600 600;" xml:space="preserve">
<style type="text/css">
	.st0{fill:#FFFFFF;}
	.st1{clip-path:url(#SVGID_2_);}
	.st2{fill:none;stroke:#7F8080;stroke-width:3;stroke-linecap:round;stroke-linejoin:round;stroke-miterlimit:10;}
	.st3{clip-path:url(#SVGID_4_);fill:#F2F2F2;}
	.st4{clip-path:url(#SVGID_4_);}
	.st5{clip-path:url(#SVGID_6_);}
	.st6{clip-path:url(#SVGID_8_);}
	.st7{clip-path:url(#SVGID_10_);}
	.st8{clip-path:url(#SVGID_12_);}
	.st9{clip-path:url(#SVGID_14_);}
	.st10{clip-path:url(#SVGID_16_);}
	.st11{clip-path:url(#SVGID_16_);fill:none;stroke:#7F8080;stroke-width:3;stroke-linejoin:round;stroke-miterlimit:10;}
	.st12{clip-path:url(#SVGID_16_);fill:#FFFFFF;stroke:#7F8080;stroke-width:3;stroke-linejoin:round;stroke-miterlimit:10;}
</style>
<g>
	<rect x="-0.8" y="0" class="st0" width="600" height="600"/>
	<g>
		<defs>
			<rect id="SVGID_3_" x="-0.8" y="0" width="600" height="600"/>
		</defs>
		<clipPath id="SVGID_2_">
			<use xlink:href="#SVGID_3_"  style="overflow:visible;"/>
		</clipPath>
		<path style="clip-path:url(#SVGID_2_);fill:#F2F2F2;" d="M154,100.7c0,0,65.2-10.7,82.2-35.3c0,0,36.9,12.7,58.3,11.9
			c0,0,42.9-3.2,52.5-5.6c0,0,10.4-7.2,15.6-0.8c0,0,14.7,26.2,79.1,34.2c0,0-24.9,160.8,21.8,194.9l5.4,3.1
			c0,0-14.4,116.1-10.4,215.5c0,0,5.4,73.1,8.2,81.5l-331.8,0.4c0,0,14.7-70.9,11.2-150.3c0,0-1.7-116.6-11.6-150.1
			c0,0,23.6-14.4,21.6-128.9C155.9,171.1,155.8,121,154,100.7z"/>
		<g class="st1">
			<path class="st2" d="M346.5,70.5c0,0,6.6-8.9,19.2,0l70.9,14.8c0,0,9.3,2.5,7.3,14.5c-4.1,21.3-6,62.1-6.8,83.7
				c-1.5,42.4-7,105.6,43.6,122.6c0,0-21.2,263.5,2.7,307.2c0,0-17.2,18.6-108.7,19.9c0,0-102.9,12.9-120.1-7.7
				c0,0,43.2,15.3-2.6,15.5c0,0-96.8-3.2-128.6-21.1c0,0,13.3-215.4-7.3-314.2c0,0,40.8,11.9,39.4-98.1c0,0,0.7-81.5,0-95.5
				c0,0-7.3-26.5,8.6-27.2c0,0,38.4-0.1,63-16c0,0,8-7.9,18.6-0.6"/>
			<path class="st2" d="M245.8,68.4c0,0,44.7,17.4,100.8,2.1"/>
		</g>
	</g>
</g>
</svg>
