<?xml version="1.0" encoding="utf-8"?>
<!-- Generator: Adobe Illustrator 20.1.0, SVG Export Plug-In . SVG Version: 6.00 Build 0)  -->
<svg version="1.1" id="Layer_1" xmlns="http://www.w3.org/2000/svg" xmlns:xlink="http://www.w3.org/1999/xlink" x="0px" y="0px"
	 viewBox="0 0 600 600" style="enable-background:new 0 0 600 600;" xml:space="preserve">
<style type="text/css">
	.st0{fill:#FFFFFF;}
	.st1{clip-path:url(#SVGID_2_);}
	.st2{fill:none;stroke:#7F8080;stroke-width:3;stroke-linecap:round;stroke-linejoin:round;stroke-miterlimit:10;}
	.st3{clip-path:url(#SVGID_4_);fill:#F2F2F2;}
	.st4{clip-path:url(#SVGID_4_);}
	.st5{clip-path:url(#SVGID_6_);}
	.st6{clip-path:url(#SVGID_8_);}
	.st7{clip-path:url(#SVGID_10_);}
	.st8{clip-path:url(#SVGID_12_);}
	.st9{clip-path:url(#SVGID_14_);}
	.st10{clip-path:url(#SVGID_16_);}
	.st11{clip-path:url(#SVGID_16_);fill:none;stroke:#7F8080;stroke-width:3;stroke-linejoin:round;stroke-miterlimit:10;}
	.st12{clip-path:url(#SVGID_16_);fill:#FFFFFF;stroke:#7F8080;stroke-width:3;stroke-linejoin:round;stroke-miterlimit:10;}
</style>
<g>
	<rect x="-0.6" y="0.2" class="st0" width="600" height="600"/>
	<g>
		<defs>
			<rect id="SVGID_9_" x="-0.6" y="0.2" width="600" height="600"/>
		</defs>
		<clipPath id="SVGID_2_">
			<use xlink:href="#SVGID_9_"  style="overflow:visible;"/>
		</clipPath>
		<g class="st1">
			<path class="st2" d="M346.8,70.7c0,0,6.6-8.9,19.2,0L437,85.6c0,0,9.3,2.5,7.3,14.5c-4.1,21.3-6,62.1-6.8,83.7
				c-1.5,42.4-7,105.6,43.6,122.6c0,0-21.2,263.5,2.7,307.2c0,0-17.2,18.6-108.7,19.9c0,0-102.9,12.9-120.1-7.7
				c0,0,43.2,15.3-2.6,15.5c0,0-96.8-3.2-128.6-21.1c0,0,13.3-215.4-7.3-314.2c0,0,40.8,11.9,39.4-98.1c0,0,0.7-81.5,0-95.5
				c0,0-7.3-26.5,8.6-27.2c0,0,38.4-0.1,63-16c0,0,8-7.9,18.6-0.6"/>
			<path class="st2" d="M254.9,625.8c-7-13.9-7.2-25.9-7.2-25.9s-7.8-251.1-7.8-251.6c2.7-24.1,46.3-62,67.6-100.6
				c27.6-50.1,33.3-120.3,39.3-177"/>
			<path class="st2" d="M346.8,70.7c-56,15.3-100.8-2.1-100.8-2.1"/>
			<circle class="st2" cx="257.6" cy="377.5" r="6.2"/>
			<circle class="st2" cx="264" cy="459.1" r="6.2"/>
			<circle class="st2" cx="267.2" cy="543.8" r="6.2"/>
			<circle class="st2" cx="343.6" cy="377.5" r="6.2"/>
			<circle class="st2" cx="340.5" cy="459.1" r="6.2"/>
			<circle class="st2" cx="337.3" cy="543.8" r="6.2"/>
			<rect x="361.9" y="261.2" class="st2" width="52.7" height="9.3"/>
			<path class="st2" d="M285.2,276.4c0,0-66.2-128.1-57.7-207.1"/>
		</g>
	</g>
</g>
</svg>
